<svg width="33" height="32" viewBox="0 0 33 32" fill="none" xmlns="http://www.w3.org/2000/svg">
<g clipPath="url(#clip0_3095_2090)">
<path d="M5.83301 7.99967C5.83301 7.29243 6.11396 6.61415 6.61406 6.11406C7.11415 5.61396 7.79243 5.33301 8.49967 5.33301H24.4997C25.2069 5.33301 25.8852 5.61396 26.3853 6.11406C26.8854 6.61415 27.1663 7.29243 27.1663 7.99967V10.6663C27.1663 11.3736 26.8854 12.0519 26.3853 12.552C25.8852 13.0521 25.2069 13.333 24.4997 13.333H8.49967C7.79243 13.333 7.11415 13.0521 6.61406 12.552C6.11396 12.0519 5.83301 11.3736 5.83301 10.6663V7.99967Z" stroke="#2C3E50" strokeWidth="2" strokeLinecap="round" strokeLinejoin="round"/>
<path d="M5.83301 21.3337C5.83301 20.6264 6.11396 19.9481 6.61406 19.448C7.11415 18.9479 7.79243 18.667 8.49967 18.667H24.4997C25.2069 18.667 25.8852 18.9479 26.3853 19.448C26.8854 19.9481 27.1663 20.6264 27.1663 21.3337V24.0003C27.1663 24.7076 26.8854 25.3858 26.3853 25.8859C25.8852 26.386 25.2069 26.667 24.4997 26.667H8.49967C7.79243 26.667 7.11415 26.386 6.61406 25.8859C6.11396 25.3858 5.83301 24.7076 5.83301 24.0003V21.3337Z" stroke="#2C3E50" strokeWidth="2" strokeLinecap="round" strokeLinejoin="round"/>
</g>
<defs>
<clipPath id="clip0_3095_2090">
<rect width="32" height="32" fill="white" transform="translate(0.5)"/>
</clipPath>
</defs>
</svg>
