<svg width="36" height="34" viewBox="0 0 36 34" fill="none" xmlns="http://www.w3.org/2000/svg">
<g clipPath="url(#clip0_6562_8709)">
<path d="M32 18C32 9.16344 24.8366 2 16 2C7.16344 2 0 9.16344 0 18C0 26.8366 7.16344 34 16 34C24.8366 34 32 26.8366 32 18Z" fill="#0DC143"/>
<path d="M23.1671 10.8077C21.4518 9.04187 19.0807 8.08334 16.659 8.08334C11.5131 8.08334 7.37614 12.2707 7.4266 17.3662C7.4266 18.9806 7.88067 20.5446 8.6374 21.9572L7.32567 26.75L12.2194 25.4887C13.5815 26.2455 15.0951 26.5987 16.6085 26.5987C21.7041 26.5987 25.841 22.4113 25.841 17.3157C25.841 14.8437 24.8825 12.523 23.1671 10.8077ZM16.659 25.0347C15.2969 25.0347 13.9347 24.6815 12.7743 23.9752L12.4716 23.8239L9.54554 24.5806L10.3023 21.7049L10.1005 21.4023C7.88067 17.8203 8.94007 13.0779 12.5725 10.8581C16.2049 8.63829 20.8969 9.69774 23.1167 13.3302C25.3365 16.9626 24.2771 21.6545 20.6446 23.8743C19.4843 24.6311 18.0716 25.0347 16.659 25.0347ZM21.0987 19.4347L20.5437 19.1824C20.5437 19.1824 19.7365 18.8293 19.232 18.577C19.1815 18.577 19.1311 18.5266 19.0807 18.5266C18.9293 18.5266 18.8284 18.577 18.7275 18.6275C18.7275 18.6275 18.6771 18.6779 17.9707 19.4851C17.9203 19.5861 17.8194 19.6365 17.7185 19.6365H17.668C17.6176 19.6365 17.5167 19.5861 17.4662 19.5356L17.214 19.4347C16.659 19.1824 16.1545 18.8797 15.7509 18.4761C15.65 18.3752 15.4987 18.2743 15.3977 18.1734C15.0446 17.8203 14.6915 17.4167 14.4392 16.9626L14.3887 16.8617C14.3383 16.8113 14.3383 16.7608 14.2879 16.6599C14.2879 16.559 14.2879 16.4581 14.3383 16.4077C14.3383 16.4077 14.5401 16.1554 14.6915 16.0041C14.7923 15.9031 14.8428 15.7518 14.9437 15.6509C15.0446 15.4995 15.0951 15.2977 15.0446 15.1464C14.9941 14.8941 14.3887 13.532 14.2374 13.2293C14.1365 13.0779 14.0356 13.0275 13.8843 12.977H13.7329C13.632 12.977 13.4807 12.977 13.3293 12.977C13.2284 12.977 13.1275 13.0275 13.0266 13.0275L12.9761 13.0779C12.8752 13.1284 12.7743 13.2293 12.6734 13.2797C12.5725 13.3806 12.5221 13.4815 12.4212 13.5824C12.068 14.0365 11.8662 14.5915 11.8662 15.1464C11.8662 15.55 11.9671 15.9536 12.1185 16.3067L12.1689 16.4581C12.623 17.4167 13.2284 18.2743 14.0356 19.0311L14.2374 19.2329C14.3887 19.3843 14.5401 19.4851 14.641 19.6365C15.7005 20.5446 16.9113 21.2005 18.2734 21.5536C18.4248 21.6041 18.6266 21.6041 18.7779 21.6545C18.9293 21.6545 19.1311 21.6545 19.2825 21.6545C19.5347 21.6545 19.8374 21.5536 20.0392 21.4527C20.1905 21.3518 20.2915 21.3518 20.3923 21.2509L20.4933 21.15C20.5941 21.0491 20.6951 20.9987 20.7959 20.8977C20.8969 20.7969 20.9977 20.6959 21.0482 20.5951C21.1491 20.3933 21.1995 20.141 21.25 19.8887C21.25 19.7879 21.25 19.6365 21.25 19.5356C21.25 19.5356 21.1995 19.4851 21.0987 19.4347Z" fill="white"/>
</g>
<g filter="url(#filter0_d_6562_8709)">
<rect x="18" width="18" height="8" rx="4" fill="white" shape-rendering="crispEdges"/>
<circle cx="23" cy="4" r="1" fill="#4D4D4D"/>
<circle cx="27" cy="4" r="1" fill="#4D4D4D"/>
<circle cx="31" cy="4" r="1" fill="#4D4D4D"/>
</g>
<defs>
<filter id="filter0_d_6562_8709" x="14" y="0" width="22" height="12" filterUnits="userSpaceOnUse" color-interpolation-filters="sRGB">
<feFlood flood-opacity="0" result="BackgroundImageFix"/>
<feColorMatrix in="SourceAlpha" type="matrix" values="0 0 0 0 0 0 0 0 0 0 0 0 0 0 0 0 0 0 127 0" result="hardAlpha"/>
<feOffset dx="-2" dy="2"/>
<feGaussianBlur stdDeviation="1"/>
<feComposite in2="hardAlpha" operator="out"/>
<feColorMatrix type="matrix" values="0 0 0 0 0 0 0 0 0 0 0 0 0 0 0 0 0 0 0.08 0"/>
<feBlend mode="normal" in2="BackgroundImageFix" result="effect1_dropShadow_6562_8709"/>
<feBlend mode="normal" in="SourceGraphic" in2="effect1_dropShadow_6562_8709" result="shape"/>
</filter>
<clipPath id="clip0_6562_8709">
<rect width="32" height="32" fill="white" transform="translate(0 2)"/>
</clipPath>
</defs>
</svg>
