<svg width="40" height="40" viewBox="0 0 40 40" fill="none" xmlns="http://www.w3.org/2000/svg">
<rect x="0.5" y="0.5" width="39" height="39" rx="11.5" fill="white"/>
<rect x="0.5" y="0.5" width="39" height="39" rx="11.5" stroke="#929292"/>
<rect width="26" height="26" transform="translate(7 7)" fill="white"/>
<path d="M27.1496 8.00146H12.8474C10.1687 8.00146 8 10.1702 8 12.8489V27.1541C8 29.8297 10.1687 31.9985 12.8474 31.9985H27.1526C29.8283 31.9985 32 29.8297 32 27.1511V12.8489C31.997 10.1702 29.8283 8.00146 27.1496 8.00146Z" fill="url(#paint0_linear_379_1303)"/>
<path d="M19.8961 13.5138L20.3821 12.6738C20.682 12.1488 21.3509 11.9718 21.8759 12.2718C22.4008 12.5718 22.5778 13.2408 22.2778 13.7658L17.5954 21.8718H20.982C22.0798 21.8718 22.6948 23.1618 22.2178 24.0558H12.2891C11.6831 24.0558 11.1972 23.5698 11.1972 22.9638C11.1972 22.3578 11.6831 21.8718 12.2891 21.8718H15.0727L18.6363 15.6948L17.5234 13.7628C17.2235 13.2378 17.4004 12.5748 17.9254 12.2688C18.4503 11.9688 19.1132 12.1458 19.4192 12.6708L19.8961 13.5138ZM15.6846 25.1808L14.6348 27.0018C14.3348 27.5268 13.6659 27.7038 13.141 27.4038C12.616 27.1038 12.439 26.4348 12.739 25.9098L13.5189 24.5598C14.4008 24.2868 15.1177 24.4968 15.6846 25.1808ZM24.7255 21.8778H27.5662C28.1721 21.8778 28.658 22.3638 28.658 22.9698C28.658 23.5758 28.1721 24.0618 27.5662 24.0618H25.9884L27.0532 25.9098C27.3532 26.4348 27.1762 27.0978 26.6513 27.4038C26.1263 27.7038 25.4634 27.5268 25.1575 27.0018C23.3637 23.8908 22.0169 21.5628 21.123 20.0118C20.2081 18.4338 20.862 16.8498 21.5069 16.3128C22.2238 17.5428 23.2947 19.3998 24.7255 21.8778Z" fill="white"/>
<defs>
<linearGradient id="paint0_linear_379_1303" x1="19.9985" y1="8.00146" x2="19.9985" y2="31.9985" gradientUnits="userSpaceOnUse">
<stop stop-color="#0ED4FC"/>
<stop offset="1" stop-color="#0C57EF"/>
</linearGradient>
</defs>
</svg>
