<svg width="40" height="40" viewBox="0 0 40 40" fill="none" xmlns="http://www.w3.org/2000/svg">
<rect x="0.5" y="0.5" width="39" height="39" rx="11.5" fill="white"/>
<rect x="0.5" y="0.5" width="39" height="39" rx="11.5" stroke="#929292"/>
<rect width="26" height="26" transform="translate(7 7)" fill="white"/>
<g clip-path="url(#clip0_379_1278)">
<path d="M31.8857 19.9428C31.8857 13.347 26.5387 8 19.9428 8C13.347 8 8 13.347 8 19.9428C8 26.5387 13.347 31.8857 19.9428 31.8857C26.5387 31.8857 31.8857 26.5387 31.8857 19.9428Z" fill="url(#paint0_linear_379_1278)"/>
<path d="M21.3592 21.996C21.3359 21.7866 21.2662 21.6354 21.1267 21.4957C20.8652 21.2223 20.406 21.042 19.8655 21.042C19.3249 21.042 18.8658 21.2165 18.6042 21.4957C18.4705 21.6412 18.395 21.7866 18.3717 21.996C18.3252 22.4033 18.3543 22.7523 18.4008 23.3166C18.4473 23.8518 18.5345 24.5673 18.6449 25.2887C18.7263 25.8064 18.7902 26.0856 18.8483 26.2834C18.9471 26.6092 19.3017 26.8884 19.8655 26.8884C20.4292 26.8884 20.7896 26.6034 20.8826 26.2834C20.9407 26.0856 21.0046 25.8064 21.086 25.2887C21.1965 24.5615 21.2836 23.8518 21.3301 23.3166C21.3824 22.7523 21.4057 22.4033 21.3592 21.996Z" fill="white"/>
<path d="M21.2944 19.0292C21.2944 19.8204 20.655 20.4603 19.8646 20.4603C19.0741 20.4603 18.4348 19.8204 18.4348 19.0292C18.4348 18.2381 19.0741 17.5981 19.8646 17.5981C20.655 17.5981 21.2944 18.2439 21.2944 19.0292Z" fill="white"/>
<path d="M19.848 13.3921C16.5118 13.4037 13.78 16.1146 13.7336 19.4538C13.6987 22.1588 15.4249 24.4742 17.837 25.3235C17.8951 25.3467 17.9532 25.2944 17.9474 25.2362C17.9183 25.0268 17.8834 24.8174 17.8602 24.608C17.8486 24.5323 17.8021 24.4742 17.7381 24.4392C15.8317 23.6074 14.5007 21.6934 14.524 19.477C14.553 16.5684 16.9244 14.2007 19.8247 14.1774C22.7947 14.1542 25.2184 16.5626 25.2184 19.5294C25.2184 21.7225 23.8932 23.6074 22.0043 24.4392C21.9345 24.4683 21.888 24.5323 21.8822 24.608C21.8532 24.8174 21.8241 25.0268 21.795 25.2362C21.7834 25.3002 21.8474 25.3467 21.9055 25.3235C24.2943 24.4858 26.0089 22.2054 26.0089 19.5294C25.9972 16.1437 23.2365 13.3863 19.848 13.3921Z" fill="white"/>
<path d="M19.7076 15.4281C17.5339 15.5096 15.7902 17.3071 15.7612 19.4828C15.7437 20.9139 16.4586 22.1821 17.5571 22.9325C17.6094 22.9674 17.685 22.9267 17.685 22.8627C17.6676 22.6125 17.6676 22.3915 17.6792 22.1588C17.685 22.0832 17.6559 22.0134 17.5978 21.961C16.9294 21.3327 16.5226 20.4369 16.5458 19.4479C16.5923 17.7027 17.993 16.2833 19.7367 16.2135C21.6315 16.1378 23.1891 17.662 23.1891 19.5352C23.1891 20.4892 22.7823 21.3502 22.1371 21.961C22.0848 22.0134 22.0558 22.0832 22.0558 22.1588C22.0674 22.3857 22.0616 22.6067 22.05 22.8569C22.0441 22.9209 22.1197 22.9674 22.1778 22.9267C23.2589 22.1879 23.9738 20.9372 23.9738 19.5294C23.9796 17.2141 22.0441 15.335 19.7076 15.4281Z" fill="white"/>
</g>
<defs>
<linearGradient id="paint0_linear_379_1278" x1="19.9428" y1="8" x2="19.9428" y2="31.8857" gradientUnits="userSpaceOnUse">
<stop stop-color="#F452FF"/>
<stop offset="1" stop-color="#832BC1"/>
</linearGradient>
<clipPath id="clip0_379_1278">
<rect width="24" height="24" fill="white" transform="translate(8 8)"/>
</clipPath>
</defs>
</svg>
