<svg width="40" height="40" viewBox="0 0 40 40" fill="none" xmlns="http://www.w3.org/2000/svg">
<rect x="0.5" y="0.5" width="39" height="39" rx="11.5" fill="white"/>
<rect x="0.5" y="0.5" width="39" height="39" rx="11.5" stroke="#929292"/>
<rect width="26" height="26" transform="translate(7 7)" fill="white"/>
<path d="M10.2646 10.2656H29.71V29.7111H10.2646V10.2656Z" fill="white"/>
<path d="M31.9902 14.1254C31.9902 13.3874 31.928 12.6524 31.7517 11.9339C31.4353 10.6251 30.6891 9.62531 29.5723 8.89103C28.9978 8.51601 28.3656 8.28574 27.6936 8.16426C27.1776 8.07049 26.6549 8.02776 26.1314 8.01577C26.0924 8.01199 26.0497 8.00378 26.0062 8H13.9833C13.831 8.01199 13.6788 8.0195 13.5266 8.02701C12.7803 8.06973 12.0386 8.14779 11.3351 8.42904C9.99942 8.95628 9.03417 9.87805 8.47171 11.2063C8.27672 11.6556 8.17847 12.1319 8.10873 12.6164C8.05023 13.0071 8.01874 13.4017 8.00745 13.7962C8.00745 13.8277 8 13.8584 8 13.8899V26.1131C8.00745 26.2541 8.01572 26.3943 8.02323 26.5353C8.07422 27.3521 8.17922 28.1607 8.52346 28.9107C9.17218 30.3289 10.2619 31.262 11.7581 31.7112C12.1759 31.8403 12.6139 31.8988 13.0511 31.9378C13.6061 31.9925 14.1603 32 14.7153 32H25.7459C26.2694 32 26.7929 31.9648 27.3164 31.8988C28.1406 31.793 28.9138 31.5508 29.6136 31.0902C30.4535 30.5352 31.0865 29.8009 31.4923 28.8829C31.6797 28.4607 31.7855 28.0121 31.8635 27.5584C31.9767 26.8826 32 26.1986 32 25.5153C31.9962 21.718 32 17.9213 31.9962 14.124L31.9902 14.1254ZM25.5682 18.1133V23.8248C25.5682 24.2425 25.5097 24.6528 25.3222 25.0316C25.0335 25.6211 24.5647 25.9923 23.9355 26.1723C23.5875 26.2736 23.2283 26.3284 22.8653 26.3441C21.9158 26.3913 21.0916 25.7463 20.9236 24.8088C20.7788 24.0355 21.1501 23.1835 21.9623 22.7852C22.2825 22.6292 22.6305 22.5355 22.9777 22.465C23.3565 22.3832 23.7353 22.3089 24.1102 22.2227C24.3877 22.1604 24.567 21.9925 24.6217 21.7067C24.6375 21.6444 24.6412 21.5777 24.6412 21.5154C24.6412 19.6989 24.6412 17.8823 24.6412 16.0702C24.6412 16.008 24.6292 15.945 24.6142 15.8865C24.5752 15.7343 24.4657 15.6442 24.3097 15.6517C24.1492 15.6592 23.9932 15.687 23.8372 15.7185C23.0752 15.867 22.3141 16.0192 21.5558 16.1752L17.8569 16.9215C17.8412 16.9253 17.8217 16.9336 17.8059 16.9336C17.5284 17.0116 17.4309 17.1368 17.4189 17.4255C17.4152 17.4683 17.4189 17.5118 17.4189 17.5546C17.4152 20.1564 17.4189 22.7582 17.4152 25.3593C17.4152 25.7816 17.3679 26.1956 17.2007 26.5856C16.9232 27.2261 16.4312 27.6289 15.7675 27.8201C15.4157 27.9214 15.0565 27.9806 14.689 27.9919C13.732 28.0271 12.9348 27.3903 12.7713 26.4491C12.6303 25.6368 13.0016 24.7615 13.9233 24.3708C14.2826 24.2223 14.6538 24.1405 15.0325 24.0625C15.3175 24.004 15.607 23.9455 15.892 23.887C16.2745 23.8053 16.4739 23.563 16.4934 23.1723V23.0237C16.4934 20.0627 16.4934 17.1015 16.4934 14.1404C16.4934 14.0152 16.5092 13.8907 16.5362 13.7692C16.6067 13.4842 16.81 13.3199 17.083 13.2532C17.3372 13.1864 17.5989 13.1399 17.8562 13.0851C18.5904 12.9367 19.3209 12.7882 20.0551 12.6434L22.3245 12.1821C22.9965 12.0494 23.664 11.9129 24.336 11.7801C24.555 11.7374 24.7777 11.6901 24.9997 11.6744C25.308 11.6474 25.5232 11.8424 25.5547 12.1551C25.5622 12.2294 25.5667 12.3037 25.5667 12.3779V18.1088L25.5682 18.1133Z" fill="url(#paint0_linear_379_1199)"/>
<defs>
<linearGradient id="paint0_linear_379_1199" x1="20" y1="8" x2="20" y2="32" gradientUnits="userSpaceOnUse">
<stop stop-color="#FB5971"/>
<stop offset="1" stop-color="#FA253D"/>
</linearGradient>
</defs>
</svg>
