<svg width="40" height="40" viewBox="0 0 40 40" fill="none" xmlns="http://www.w3.org/2000/svg">
<rect x="0.5" y="0.5" width="39" height="39" rx="11.5" fill="white"/>
<rect x="0.5" y="0.5" width="39" height="39" rx="11.5" stroke="#929292"/>
<rect width="26" height="26" transform="translate(7 7)" fill="white"/>
<g clip-path="url(#clip0_379_1261)">
<path fill-rule="evenodd" clip-rule="evenodd" d="M12.9221 8H27.0784C28.3827 8.00361 29.6325 8.52332 30.5547 9.44557C31.477 10.3678 31.9967 11.6176 32.0003 12.9219V27.0781C31.9967 28.3824 31.477 29.6322 30.5547 30.5544C29.6325 31.4767 28.3827 31.9964 27.0784 32H12.9221C11.6179 31.9964 10.3681 31.4767 9.44584 30.5544C8.52359 29.6322 8.00388 28.3824 8.00027 27.0781V12.9219C8.00388 11.6176 8.52359 10.3678 9.44584 9.44557C10.3681 8.52332 11.6179 8.00361 12.9221 8Z" fill="#1769FF"/>
<path fill-rule="evenodd" clip-rule="evenodd" d="M22.6976 22.5273C22.9577 22.7345 23.2756 22.8558 23.6076 22.8747C23.9395 22.8936 24.2692 22.8091 24.5511 22.6328C24.7451 22.5139 24.8942 22.3339 24.9749 22.1211H26.3714C26.1468 22.8164 25.8069 23.3105 25.3421 23.6094C24.841 23.9202 24.2597 24.0771 23.6702 24.0606C23.2493 24.066 22.8311 23.9918 22.4378 23.8418C22.086 23.7046 21.7681 23.4927 21.5062 23.2207C21.2491 22.9424 21.0499 22.6157 20.9202 22.2598C20.7791 21.8644 20.7091 21.4471 20.7132 21.0273C20.7102 20.6154 20.7823 20.2064 20.9261 19.8203C21.0587 19.4567 21.2648 19.1242 21.5316 18.8438C21.7983 18.5695 22.117 18.351 22.4691 18.2012C22.8502 18.0402 23.2604 17.9597 23.6741 17.9648C24.1189 17.954 24.5596 18.0525 24.9573 18.252C25.3128 18.4338 25.6216 18.6951 25.8597 19.0156C26.0976 19.3482 26.2676 19.7246 26.3597 20.123C26.4642 20.5436 26.5017 20.9779 26.471 21.4102H22.305C22.2887 21.818 22.4284 22.2168 22.6956 22.5254L22.6976 22.5273ZM17.2757 15.9375C17.6253 15.934 17.9743 15.968 18.3167 16.0391C18.604 16.0954 18.8774 16.2075 19.1214 16.3691C19.3468 16.5248 19.5273 16.737 19.6448 16.9844C19.7747 17.2787 19.8367 17.5984 19.8265 17.9199C19.8391 18.2751 19.7438 18.6259 19.553 18.9258C19.3448 19.2106 19.0653 19.4356 18.7425 19.5781C19.1852 19.6866 19.5745 19.9499 19.8401 20.3203C20.0512 20.6681 20.1729 21.0627 20.1943 21.4689C20.2158 21.8751 20.1364 22.2804 19.9632 22.6484C19.8121 22.9358 19.5944 23.1829 19.3284 23.3691C19.0535 23.5598 18.7465 23.6994 18.4222 23.7813C18.0817 23.8706 17.7312 23.9159 17.3792 23.916H13.5159V15.9395H17.2757V15.9375ZM17.1448 22.5547C17.3096 22.5561 17.4741 22.5391 17.6351 22.5039C17.7823 22.4751 17.9224 22.4174 18.0472 22.334C18.1688 22.2545 18.2677 22.1448 18.3343 22.0156C18.4096 21.8545 18.4451 21.6777 18.4378 21.5C18.4378 21.0898 18.3206 20.7949 18.0901 20.6172C17.8237 20.4325 17.5037 20.3412 17.18 20.3574H15.2698V22.5527H17.1448V22.5547ZM17.0472 19.1582C17.325 19.172 17.5996 19.0937 17.8284 18.9356C17.9337 18.8484 18.0159 18.7368 18.068 18.6104C18.1201 18.4841 18.1405 18.3469 18.1273 18.2109C18.1329 18.052 18.0987 17.8942 18.0276 17.752C17.964 17.6366 17.8701 17.5407 17.7562 17.4746C17.6365 17.4024 17.5038 17.3546 17.3655 17.334C17.2167 17.307 17.0656 17.2939 16.9144 17.2949H15.2737V19.1582H17.0511H17.0472ZM21.9788 16.582H25.2132V17.3633H21.9788V16.582ZM24.5179 19.4941C24.3991 19.3822 24.2585 19.2959 24.105 19.2405C23.9515 19.185 23.7882 19.1617 23.6253 19.1719C23.4078 19.164 23.1915 19.2082 22.9944 19.3008C22.8395 19.3785 22.7025 19.4876 22.5921 19.6211C22.4943 19.7404 22.4225 19.8787 22.3812 20.0273C22.3421 20.1544 22.3173 20.2854 22.3069 20.418H24.887C24.8676 20.0814 24.7387 19.7604 24.5198 19.5039L24.5179 19.4941Z" fill="white"/>
</g>
<defs>
<clipPath id="clip0_379_1261">
<rect width="24" height="24" fill="white" transform="translate(8 8)"/>
</clipPath>
</defs>
</svg>
