<svg width="40" height="40" viewBox="0 0 40 40" fill="none" xmlns="http://www.w3.org/2000/svg">
<rect x="0.5" y="0.5" width="39" height="39.0001" rx="11.5" fill="white"/>
<rect x="0.5" y="0.5" width="39" height="39.0001" rx="11.5" stroke="#929292"/>
<rect width="26" height="26.0001" transform="translate(7 7)" fill="white"/>
<g clip-path="url(#clip0_379_1212)">
<path d="M13.256 23.3708C12.896 23.5905 10.9891 24.5761 10.5583 24.7329C10.2508 24.8457 9.91754 24.8184 9.72113 24.2454C9.48019 23.5368 9.81863 23.3694 10.3005 23.1849C10.7266 23.0221 12.4947 22.3912 12.9054 22.2816C13.1941 22.2053 13.3947 22.3015 13.534 22.6442C13.6863 23.0207 13.5818 23.1714 13.256 23.3708ZM14.0032 18.0645C14.3257 19.1204 14.7166 20.1106 15.1413 21.0657C15.8716 22.7769 16.3643 23.6816 17.0449 24.8045C17.8774 26.1453 18.7962 27.6721 20.3079 28.6604C21.4118 29.381 22.7553 29.7501 24.0462 29.7501C25.8654 29.7501 27.4278 28.9625 28.4314 28.0388C29.4167 27.1342 30.6922 25.3896 30.6922 21.986C30.6922 20.8127 31.2186 19.8058 31.6095 19.001C31.6095 18.9844 31.6264 18.9511 31.6602 18.884C31.813 18.5487 32 18.113 32 17.6774C32 17.3587 31.9152 16.9901 31.6944 16.6719C31.3545 16.1021 30.7433 15.9009 30.1812 15.9009C28.8734 15.9009 27.9715 16.806 27.5126 17.7292L27.3598 18.0307C27.1733 17.7625 26.9862 17.4776 26.8334 17.2264C26.3576 16.405 26.0862 15.8519 25.8481 15.1465C25.6615 14.5938 25.5087 13.957 25.4065 13.4357C25.1178 11.792 24.6425 11.2555 23.8592 11.0543C23.2817 10.9035 22.6024 11.021 22.1084 11.3392C21.7699 10.5853 21.1924 10.25 20.427 10.25C19.3395 10.25 18.3527 10.9539 18.3527 12.1453C18.3527 12.2961 18.3701 12.4469 18.387 12.6314C18.251 12.5977 18.0982 12.581 17.9454 12.581C16.7735 12.581 15.9054 13.3853 15.9054 14.4764C15.9054 14.728 15.9396 15.0129 16.0244 15.3477C15.9227 15.3311 15.8205 15.3311 15.7188 15.3311C15.1413 15.3648 14.6144 15.5827 14.2394 16.035C13.8672 16.4707 13.7144 17.1409 14.0032 18.0645ZM11.9477 15.1239C11.3608 14.9412 9.61941 13.9005 9.16519 13.6323C8.75456 13.3886 8.70206 13.1693 8.988 12.6342C9.24113 12.162 9.52191 12.0797 9.9391 12.2929C10.4224 12.5412 12.1286 13.8515 12.4544 14.1105C12.7694 14.3607 12.7263 14.4902 12.5608 14.8117C12.3958 15.1331 12.2411 15.2154 11.9477 15.1239ZM11.6838 19.3775C11.171 19.3914 9.04191 19.3017 8.55534 19.254C8.13253 19.2129 7.96096 19.0288 8.00737 18.4238C8.05659 17.7749 8.313 17.7352 8.72831 17.7749C9.21019 17.8203 11.4415 18.1787 11.7968 18.2869C12.1643 18.3993 12.2149 18.564 12.1704 18.8808C12.1132 19.2924 11.9247 19.3701 11.6838 19.3775Z" fill="#1F1F1A"/>
<path d="M14.9712 17.7624C14.8183 17.2768 14.8352 16.9077 15.0222 16.6732C15.2093 16.4554 15.4638 16.355 15.7694 16.3379C16.2963 16.3213 16.4998 16.6899 16.8058 17.6454C16.9924 18.2485 17.366 19.1217 17.5873 19.6078C17.876 20.1943 18.2834 20.9819 18.4704 21.2516C18.6232 21.486 18.7591 21.5531 18.912 21.5531C19.1838 21.5531 19.3877 21.4023 19.3877 21.1341C19.3877 20.9833 19.2345 20.7322 19.1496 20.5814C18.9968 20.296 18.6743 19.7262 18.4535 19.2406C18.2154 18.7041 17.9435 18.0339 17.7227 17.429C17.5873 17.077 17.434 16.5742 17.2812 16.0715C17.0435 15.3005 16.9244 14.8311 16.9244 14.4777C16.9244 13.9417 17.3323 13.5897 17.9435 13.5897C18.3855 13.5897 18.6743 13.8075 18.8609 14.5952C19.0137 15.3158 19.2855 16.4905 19.6765 17.4123C19.931 18.0154 20.3046 18.8216 20.5254 19.2239C20.6613 19.4584 20.8142 19.6596 20.8142 19.7433C20.8142 19.8608 20.5934 20.0449 20.4068 20.2965C20.2877 20.4473 20.2366 20.5476 20.2366 20.6651C20.2366 20.7655 20.3046 20.8663 20.4068 21.0004C20.5085 21.1341 20.6107 21.2682 20.7293 21.2682C20.8142 21.2682 20.8652 21.2349 20.9163 21.1678C21.4427 20.5143 22.0203 20.0615 22.684 19.6915C23.4654 19.2558 24.2656 19.038 24.8937 18.9039C25.1998 18.8368 25.2846 18.7698 25.2846 18.6023C25.2846 18.4011 25.1318 18.2837 24.9279 18.267C24.7751 18.2504 24.6392 18.267 24.401 18.2837C24.2314 18.3003 24.1465 18.2166 24.0443 17.9988C23.7387 17.3619 23.1443 16.288 22.7876 14.9134C22.6348 14.3269 22.4988 13.7072 22.414 12.901C22.3629 12.5324 22.4309 12.3983 22.6179 12.2304C22.8556 12.0297 23.2803 11.9455 23.6028 12.0297C23.9937 12.13 24.1976 12.4316 24.401 13.6064C24.5032 14.1595 24.6729 14.8634 24.8768 15.4679C25.1318 16.2389 25.4543 16.8772 25.947 17.7319C26.2189 18.2013 26.5582 18.6874 26.915 19.1583C26.847 19.3594 26.7284 19.4931 26.3375 19.8118C25.947 20.13 25.5561 20.4653 25.1993 21.0855C24.9448 21.5378 24.8257 22.0406 24.8257 22.3759C24.8257 22.6941 24.8937 22.7612 25.0976 22.7612C25.4543 22.7612 25.7431 22.6941 25.76 22.5433C25.8448 21.9402 25.947 21.5545 26.2868 21.1008C26.4903 20.8492 26.847 20.531 27.1357 20.2794C27.6795 19.8437 27.8661 19.5926 28.0531 18.9723C28.1379 18.6874 28.2401 18.4192 28.3756 18.168C28.6986 17.5811 29.2761 16.911 30.178 16.911C30.4667 16.911 30.7044 16.9947 30.8572 17.2292C30.942 17.3633 30.9762 17.5478 30.9762 17.6819C30.9762 17.9835 30.7555 18.4025 30.6533 18.6037C30.2797 19.3914 29.6684 20.5994 29.6684 21.9906C29.6684 25.0256 28.5814 26.5352 27.7306 27.3062C26.8981 28.0772 25.5889 28.7492 24.0429 28.7492C22.939 28.7492 21.7995 28.4305 20.8652 27.8274C19.5574 26.9723 18.7404 25.6301 17.9084 24.2897C17.2455 23.2001 16.7871 22.344 16.0723 20.685C15.6691 19.7234 15.2941 18.785 14.9712 17.7624ZM19.3395 12.1453C19.3395 11.5084 19.9343 11.2568 20.427 11.2568C20.9534 11.2568 21.1399 11.5084 21.2759 12.0449C21.3949 12.4806 21.446 12.8825 21.4967 13.352C21.5646 13.821 21.8023 14.8954 21.8703 15.1636C22.1253 16.0854 22.6348 17.176 23.2465 18.4835C22.8898 18.6005 22.414 18.8017 22.0915 18.9691C21.6837 19.1869 21.5988 19.1869 21.4287 18.8687C21.072 18.2152 20.8174 17.7291 20.5967 17.1579C20.4096 16.6885 20.2231 16.152 20.0702 15.5308C19.8152 14.4749 19.7815 14.1729 19.5776 13.6854C19.4585 13.1846 19.3395 12.5643 19.3395 12.1453Z" fill="#FFE450"/>
</g>
<defs>
<clipPath id="clip0_379_1212">
<rect width="24" height="24.0001" fill="white" transform="translate(8 8)"/>
</clipPath>
</defs>
</svg>
