<svg width="40" height="40" viewBox="0 0 40 40" fill="none" xmlns="http://www.w3.org/2000/svg">
<rect x="0.5" y="0.5" width="39" height="39" rx="11.5" fill="white"/>
<rect x="0.5" y="0.5" width="39" height="39" rx="11.5" stroke="#929292"/>
<rect width="26" height="26" transform="translate(7 7)" fill="white"/>
<g clip-path="url(#clip0_379_1204)">
<path fill-rule="evenodd" clip-rule="evenodd" d="M20 8C26.6274 8 32 13.3726 32 20C32 26.6274 26.6274 32 20 32C13.3726 32 8 26.6274 8 20C8 13.3726 13.3726 8 20 8Z" fill="#5865F2"/>
<path d="M24.9184 15.5291C23.987 15.1032 23.0039 14.8009 21.9941 14.63C21.8565 14.8771 21.7319 15.1313 21.6207 15.3914C21.0836 15.3104 20.5412 15.2696 19.998 15.2694C19.4557 15.2694 18.9107 15.3106 18.375 15.3903C18.2656 15.1321 18.1386 14.876 18.0007 14.6299C16.9909 14.8024 16.0077 15.1053 15.0758 15.5309C13.2251 18.2688 12.7235 20.9383 12.9743 23.5698C14.058 24.3703 15.2709 24.9791 16.5603 25.3697C16.8495 24.9794 17.1085 24.5638 17.3284 24.1314C16.9088 23.975 16.5039 23.7818 16.1184 23.554C16.2199 23.4804 16.3191 23.4046 16.4149 23.3311C17.5358 23.8575 18.7605 24.1321 19.9996 24.1321C21.2388 24.1321 22.4635 23.8575 23.5844 23.331C23.6813 23.4101 23.7806 23.4859 23.8808 23.5539C23.4946 23.7822 23.089 23.9759 22.6687 24.1329C22.8894 24.5663 23.1463 24.9802 23.4368 25.3702C24.7274 24.9808 25.9412 24.372 27.0252 23.5706L27.0249 23.5709C27.3192 20.5192 26.5223 17.8742 24.9184 15.5291ZM17.6456 21.9514C16.9468 21.9514 16.3694 21.3172 16.3694 20.537C16.3694 19.7568 16.9267 19.117 17.6434 19.117C18.36 19.117 18.933 19.7568 18.9207 20.537C18.9084 21.3172 18.3578 21.9514 17.6456 21.9514ZM22.3537 21.9514C21.6537 21.9514 21.0786 21.3172 21.0786 20.537C21.0786 19.7568 21.6359 19.117 22.3537 19.117C23.0715 19.117 23.6399 19.7568 23.6276 20.537C23.6154 21.3172 23.0659 21.9514 22.3537 21.9514Z" fill="white"/>
</g>
<defs>
<clipPath id="clip0_379_1204">
<rect width="24" height="24" fill="white" transform="translate(8 8)"/>
</clipPath>
</defs>
</svg>
