<svg width="40" height="40" viewBox="0 0 40 40" fill="none" xmlns="http://www.w3.org/2000/svg">
<rect x="0.5" y="0.5" width="39" height="39" rx="11.5" fill="white"/>
<rect x="0.5" y="0.5" width="39" height="39" rx="11.5" stroke="#929292"/>
<rect width="26" height="26" transform="translate(7 7)" fill="white"/>
<path d="M20 31.625C26.4203 31.625 31.625 26.4203 31.625 20C31.625 13.5797 26.4203 8.375 20 8.375C13.5797 8.375 8.375 13.5797 8.375 20C8.375 26.4203 13.5797 31.625 20 31.625Z" fill="#EA4C89"/>
<path fill-rule="evenodd" clip-rule="evenodd" d="M20 8C13.3753 8 8 13.3753 8 20C8 26.6248 13.3753 32 20 32C26.6117 32 32 26.6248 32 20C32 13.3753 26.6117 8 20 8ZM27.9262 13.5315C29.3579 15.2755 30.2169 17.5011 30.243 19.9089C29.9046 19.8438 26.5206 19.154 23.1106 19.5835C23.0325 19.4143 22.9675 19.2321 22.8894 19.0499C22.6811 18.5554 22.4469 18.0478 22.2126 17.5662C25.9869 16.0304 27.705 13.8178 27.9262 13.5315ZM20 9.77007C22.603 9.77007 24.9848 10.7462 26.7939 12.3471C26.6117 12.6074 25.0629 14.6768 21.4186 16.0434C19.7397 12.9588 17.8786 10.4338 17.5922 10.0434C18.3601 9.86117 19.1671 9.77007 20 9.77007ZM15.6399 10.7332C15.9132 11.0976 17.7354 13.6356 19.4404 16.6551C14.6508 17.9306 10.4208 17.9046 9.96529 17.9046C10.6291 14.7289 12.7766 12.0868 15.6399 10.7332ZM9.74404 20.0131C9.74404 19.9089 9.74404 19.8048 9.74404 19.7007C10.1866 19.7136 15.1584 19.7788 20.2733 18.243C20.5727 18.8156 20.846 19.4013 21.1063 19.9869C20.9761 20.026 20.8329 20.0651 20.7028 20.1041C15.4187 21.8091 12.6074 26.4685 12.3731 26.859C10.7462 25.0499 9.74404 22.6421 9.74404 20.0131ZM20 30.256C17.6312 30.256 15.4447 29.449 13.7137 28.0954C13.8959 27.718 15.9783 23.7094 21.757 21.692C21.783 21.679 21.7961 21.679 21.8221 21.666C23.2668 25.4013 23.8525 28.5379 24.0087 29.436C22.7722 29.9696 21.4186 30.256 20 30.256ZM25.7136 28.4989C25.6096 27.8742 25.0629 24.8807 23.7223 21.1974C26.9371 20.6898 29.7484 21.5228 30.0998 21.6399C29.6573 24.4902 28.0173 26.9501 25.7136 28.4989Z" fill="#C32361"/>
</svg>
