<svg width="40" height="40" viewBox="0 0 40 40" fill="none" xmlns="http://www.w3.org/2000/svg">
<rect x="0.5" y="0.5" width="39" height="39" rx="11.5" fill="white"/>
<rect x="0.5" y="0.5" width="39" height="39" rx="11.5" stroke="#929292"/>
<rect width="26" height="26" transform="translate(7 7)" fill="white"/>
<path d="M26.6667 32H13.3333C10.3927 32 8 29.6073 8 26.6667V13.3333C8 10.3927 10.3927 8 13.3333 8H26.6667C29.6073 8 32 10.3927 32 13.3333V26.6667C32 29.6073 29.6073 32 26.6667 32Z" fill="#1E88E5"/>
<path d="M27.9507 15.023L23.6093 19.5L27.95 23.9763C27.9793 23.8636 28 23.7474 28 23.625V15.375C28 15.2526 27.9793 15.1364 27.9507 15.023ZM21.792 19.4306L27.008 14.0509C26.898 14.0213 26.7853 14 26.6667 14H13.3333C13.2147 14 13.102 14.0213 12.992 14.0509L18.208 19.4306C19.1967 20.4488 20.8033 20.4488 21.792 19.4306ZM20 21.5687C19.04 21.5687 18.0847 21.1961 17.34 20.4652L12.992 24.9491C13.102 24.9787 13.2147 25 13.3333 25H26.6667C26.7853 25 26.898 24.9787 27.008 24.9491L22.66 20.4652C21.9153 21.1961 20.96 21.5687 20 21.5687ZM12.0493 15.023C12.0207 15.1364 12 15.2526 12 15.375V23.625C12 23.7474 12.0207 23.8636 12.0493 23.977L16.3907 19.5L12.0493 15.023Z" fill="white"/>
</svg>
