<svg width="40" height="40" viewBox="0 0 40 40" fill="none" xmlns="http://www.w3.org/2000/svg">
<rect x="0.5" y="0.5" width="39" height="38.9117" rx="11.5" fill="white"/>
<rect x="0.5" y="0.5" width="39" height="38.9117" rx="11.5" stroke="#929292"/>
<rect width="26" height="25.9117" transform="translate(7 7)" fill="white"/>
<path d="M31.9995 19.9998C31.9995 13.3725 26.627 8 19.9998 8C13.3725 8 8 13.3725 8 19.9998C8 25.6272 11.8745 30.3493 17.1011 31.6462V23.6669H14.6267V19.9998H17.1011V18.4196C17.1011 14.3354 18.9495 12.4423 22.9594 12.4423C23.7197 12.4423 25.0315 12.5916 25.5681 12.7404V16.0643C25.2849 16.0346 24.7929 16.0197 24.1819 16.0197C22.2144 16.0197 21.4541 16.7651 21.4541 18.7028V19.9998H25.3737L24.7003 23.6669H21.4541V31.9117C27.3959 31.1941 32 26.135 32 19.9998H31.9995Z" fill="#0866FF"/>
</svg>
