<svg width="40" height="40" viewBox="0 0 40 40" fill="none" xmlns="http://www.w3.org/2000/svg">
<rect x="0.5" y="0.5" width="39" height="39" rx="11.5" fill="white"/>
<rect x="0.5" y="0.5" width="39" height="39" rx="11.5" stroke="#929292"/>
<rect width="26" height="26" transform="translate(7 7)" fill="white"/>
<g clip-path="url(#clip0_379_1266)">
<path d="M20 8C13.3724 8 8 13.3724 8 20C8 25.3328 11.4812 29.846 16.292 31.4096H23.708C28.52 29.8472 32 25.3328 32 20C32 13.3724 26.6276 8 20 8Z" fill="black"/>
<path opacity="0.05" d="M23.606 30.7977L23.6 27.3189C23.6 26.7561 23.468 26.2053 23.2148 25.7061C26.6 25.0269 28.2464 23.0253 28.2464 19.5993C28.2464 18.2469 27.8468 17.0517 27.0608 16.0473C27.1208 15.8577 27.1652 15.6597 27.1928 15.4581C27.3056 14.6373 27.1796 14.0997 27.0764 13.6677L27.0596 13.5981C26.948 13.1205 26.8136 12.7797 26.8088 12.7653L26.7416 12.5961L26.6744 12.4269L26.4932 12.4077L26.3108 12.3885C26.3108 12.3885 26.1908 12.3765 26.0108 12.3765C25.76 12.3765 25.3868 12.4017 25.0352 12.5217L24.9176 12.5613C24.4736 12.7101 24.0548 12.8517 23.468 13.2033C23.2964 13.3065 23.1092 13.4229 22.9076 13.5537C21.9992 13.3281 21.0212 13.2141 19.9988 13.2141C18.9764 13.2141 17.9804 13.3293 17.066 13.5573C16.862 13.4253 16.6736 13.3077 16.5008 13.2045C15.914 12.8541 15.494 12.7125 15.0512 12.5625L14.9336 12.5229C14.582 12.4029 14.21 12.3777 13.958 12.3777C13.7768 12.3777 13.6568 12.3897 13.6568 12.3897L13.4756 12.4089L13.2956 12.4281L13.2284 12.5973L13.1612 12.7665C13.1552 12.7821 13.022 13.1229 12.9104 13.6005L12.8936 13.6689C12.7916 14.0997 12.6656 14.6373 12.7784 15.4581C12.8072 15.6657 12.8528 15.8685 12.9164 16.0641C12.146 17.0637 11.7548 18.2517 11.7548 19.5981C11.7548 23.0145 13.4036 25.0149 16.7936 25.7001C16.6772 25.9329 16.5872 26.1789 16.5224 26.4345C16.4036 26.4753 16.2956 26.5017 16.1996 26.5173C16.0568 26.5389 15.908 26.5497 15.7556 26.5497C15.344 26.5497 15.02 26.4693 14.8952 26.3949C14.708 26.2833 14.372 25.9581 14.0468 25.4841C13.7684 25.0797 13.3364 24.5493 12.8516 24.3273C12.4328 24.1353 11.9888 24.0261 11.6336 24.0261C11.5508 24.0261 11.474 24.0321 11.408 24.0429C11.0972 24.0921 10.838 24.2625 10.6976 24.5109C10.5752 24.7257 10.5572 24.9753 10.6448 25.1961C10.7756 25.5249 11.1548 25.7877 11.4512 25.9497C11.5964 26.0289 11.9108 26.3205 12.0932 26.6157C12.2312 26.8365 12.2948 26.9937 12.3824 27.2109C12.434 27.3405 12.4916 27.4809 12.5696 27.6501C12.8516 28.2633 13.7324 28.8045 13.8308 28.8633C14.3144 29.1537 15.128 29.2461 15.7256 29.2725H15.7988V29.2737C15.9428 29.2737 16.1408 29.2605 16.4012 29.2317V30.7989C16.4024 31.1157 16.0784 31.1877 15.6512 31.1817L15.98 31.2921C17.2376 31.7421 18.5876 31.9989 20 31.9989C21.4124 31.9989 22.7624 31.7421 24.0212 31.2933L24.4424 31.1361C24.0164 31.1217 23.6084 31.0521 23.6048 30.7965L23.606 30.7977Z" fill="black"/>
<path opacity="0.07" d="M24.0692 31.2787C23.8256 31.3075 23.3 31.2127 23.3 30.8023V27.3199C23.3 26.6635 23.1032 26.0287 22.7384 25.4887C26.288 24.9139 27.9464 23.0323 27.9464 19.6015C27.9464 18.2599 27.5348 17.0851 26.7224 16.1083C26.8052 15.8899 26.8628 15.6583 26.8952 15.4207C26.9996 14.6551 26.8856 14.1691 26.7848 13.7395L26.768 13.6699C26.6612 13.2139 26.5352 12.8923 26.5304 12.8779L26.4632 12.7087L26.2808 12.6895C26.2808 12.6895 26.174 12.6775 26.0108 12.6775C25.7816 12.6775 25.4444 12.6991 25.1312 12.8071L25.0136 12.8467C24.5852 12.9919 24.1808 13.1275 23.6216 13.4611C23.4224 13.5799 23.2004 13.7191 22.9616 13.8775C22.0424 13.6363 21.0464 13.5139 20 13.5139C18.9536 13.5139 17.9396 13.6363 17.012 13.8799C16.7708 13.7203 16.5476 13.5811 16.3472 13.4599C15.788 13.1263 15.3824 12.9895 14.954 12.8455L14.8364 12.8059C14.5244 12.6991 14.1848 12.6763 13.9568 12.6763C13.7948 12.6763 13.6868 12.6883 13.6868 12.6883L13.5056 12.7075L13.4384 12.8767C13.4336 12.8899 13.3076 13.2115 13.1996 13.6687L13.1828 13.7383C13.082 14.1679 12.9668 14.6527 13.0724 15.4183C13.106 15.6619 13.166 15.8995 13.2512 16.1227C12.4556 17.0947 12.0524 18.2623 12.0524 19.6003C12.0524 23.0227 13.712 24.9031 17.264 25.4839C17.0264 25.8379 16.862 26.2375 16.7768 26.6623C16.5788 26.7403 16.4 26.7919 16.2416 26.8159C16.0832 26.8399 15.9188 26.8519 15.7532 26.8519C15.3392 26.8519 14.942 26.7739 14.7392 26.6551C14.4752 26.4979 14.1044 26.1067 13.796 25.6555C13.586 25.3495 13.1684 24.8059 12.7232 24.6031C12.3416 24.4291 11.9444 24.3283 11.63 24.3283C11.564 24.3283 11.504 24.3331 11.4512 24.3415C11.2316 24.3763 11.0504 24.4927 10.9544 24.6619C10.8776 24.7963 10.8644 24.9511 10.9184 25.0867C11.0252 25.3555 11.4236 25.5967 11.5892 25.6879C11.7908 25.7983 12.14 26.1343 12.3416 26.4583C12.4928 26.7007 12.5636 26.8759 12.6536 27.0991C12.7052 27.2239 12.7604 27.3619 12.836 27.5263C13.0352 27.9583 13.6472 28.4095 13.9784 28.6087C14.4308 28.8799 15.2708 28.9555 15.7316 28.9759H15.7988C15.9776 28.9759 16.2788 28.9507 16.6964 28.8967V30.8035C16.6964 31.2703 16.1024 31.2895 15.956 31.2895C15.9368 31.2895 16.2584 31.3999 16.2584 31.3999C17.4368 31.7863 18.6908 32.0023 19.9976 32.0023C21.3044 32.0023 22.5596 31.7863 23.7356 31.4011C23.7356 31.4011 24.0848 31.2787 24.0656 31.2811L24.0692 31.2787Z" fill="black"/>
<path d="M27.6464 19.6004C27.6464 18.2144 27.1772 17.0648 26.3756 16.1636C26.4632 15.968 26.5532 15.7076 26.5976 15.3776C26.7008 14.6276 26.5796 14.1776 26.4764 13.7372C26.3732 13.2968 26.2508 12.9872 26.2508 12.9872C26.2508 12.9872 25.6976 12.9308 25.2296 13.0904C24.7616 13.25 24.3584 13.3712 23.7764 13.718C23.5052 13.88 23.2304 14.0576 23.0144 14.2016C22.0892 13.9448 21.0704 13.8128 20 13.8128C18.9296 13.8128 17.8916 13.9448 16.9604 14.204C16.7432 14.0588 16.4684 13.8812 16.1936 13.718C15.6128 13.3712 15.2084 13.2488 14.7404 13.0904C14.2724 12.932 13.718 12.9872 13.718 12.9872C13.718 12.9872 13.5956 13.2968 13.4924 13.7372C13.3892 14.1776 13.2668 14.6276 13.37 15.3776C13.4156 15.7148 13.5092 15.9812 13.5992 16.178C12.8132 17.0744 12.3524 18.2156 12.3524 19.6004C12.3524 23.1896 14.2916 24.8288 17.8256 25.262C17.4128 25.6976 17.1368 26.2556 17.0444 26.876C16.8128 26.978 16.544 27.074 16.2872 27.1124C15.6248 27.212 14.9252 27.1124 14.5868 26.912C14.2484 26.7116 13.8488 26.2616 13.5488 25.8248C13.2956 25.4552 12.9296 25.0256 12.5984 24.8744C12.1604 24.674 11.7356 24.5996 11.498 24.6368C11.2604 24.674 11.1476 24.8492 11.198 24.974C11.2484 25.0988 11.486 25.286 11.7356 25.424C11.9852 25.562 12.3728 25.9364 12.5984 26.2988C12.8492 26.7032 12.8984 26.936 13.1108 27.3992C13.2596 27.7244 13.7708 28.1312 14.1356 28.3496C14.4476 28.5368 15.0728 28.6448 15.7484 28.6748C15.9812 28.6856 16.5332 28.6172 16.9988 28.5512V30.8012C16.9988 31.184 16.6484 31.4756 16.2848 31.4096C17.4512 31.802 18.698 32.0012 19.9976 32.0012C21.2972 32.0012 22.544 31.802 23.7116 31.4108C23.348 31.478 22.9976 31.1852 22.9976 30.8024V27.32C22.9976 26.5232 22.6808 25.802 22.1744 25.2656C25.682 24.8444 27.644 23.2448 27.644 19.6028L27.6464 19.6004Z" fill="white"/>
<path d="M12.344 25.2368C12.2516 25.19 12.2012 25.1024 12.2324 25.04C12.2636 24.9776 12.3644 24.9668 12.4568 25.0148C12.5492 25.0616 12.5996 25.1492 12.5684 25.2116C12.5372 25.274 12.4364 25.2848 12.344 25.2368Z" fill="white"/>
<path d="M13.0712 25.6893C13.022 25.7421 12.9176 25.7253 12.8384 25.6521C12.7592 25.5789 12.7316 25.4769 12.7808 25.4229C12.83 25.3689 12.9344 25.3869 13.0136 25.4601C13.0928 25.5333 13.1192 25.6365 13.0712 25.6893Z" fill="white"/>
<path d="M13.5224 26.4391C13.4612 26.4823 13.358 26.4427 13.2908 26.3491C13.2236 26.2555 13.22 26.1451 13.2812 26.1019C13.3424 26.0587 13.4456 26.0983 13.5128 26.1919C13.5788 26.2843 13.5836 26.3959 13.5224 26.4391Z" fill="white"/>
<path d="M14.1728 27.0043C14.1308 27.0715 14.0132 27.0751 13.91 27.0115C13.8068 26.9479 13.7564 26.8435 13.7972 26.7751C13.8392 26.7079 13.9568 26.7043 14.06 26.7679C14.1632 26.8315 14.2136 26.9371 14.1728 27.0043Z" fill="white"/>
<path d="M14.7872 27.5563C14.6588 27.5407 14.564 27.4603 14.576 27.3775C14.5868 27.2947 14.6984 27.2407 14.8256 27.2563C14.954 27.2719 15.0488 27.3523 15.0368 27.4351C15.026 27.5167 14.9144 27.5719 14.7872 27.5563Z" fill="white"/>
</g>
<defs>
<clipPath id="clip0_379_1266">
<rect width="24" height="24" fill="white" transform="translate(8 8)"/>
</clipPath>
</defs>
</svg>
