<svg width="40" height="40" viewBox="0 0 40 40" fill="none" xmlns="http://www.w3.org/2000/svg">
<rect x="0.5" y="0.5" width="39" height="39" rx="11.5" fill="white"/>
<rect x="0.5" y="0.5" width="39" height="39" rx="11.5" stroke="#929292"/>
<rect width="26" height="26" transform="translate(7 7)" fill="white"/>
<g clip-path="url(#clip0_379_1161)">
<path d="M20.0036 8.17969C15.0688 8.17969 13.6256 8.18478 13.3451 8.20805C12.3324 8.29223 11.7022 8.45169 11.0157 8.79351C10.4866 9.05623 10.0693 9.36078 9.65754 9.78769C8.90756 10.5662 8.45303 11.5241 8.28849 12.6626C8.20849 13.2153 8.18522 13.3281 8.1805 16.1513C8.17868 17.0924 8.1805 18.331 8.1805 19.9922C8.1805 24.9231 8.18595 26.365 8.20959 26.645C8.2914 27.6304 8.44594 28.2504 8.7732 28.9286C9.39864 30.2268 10.5931 31.2013 12.0004 31.565C12.4876 31.6904 13.0258 31.7595 13.7167 31.7922C14.0094 31.805 16.993 31.8141 19.9783 31.8141C22.9637 31.8141 25.949 31.8104 26.2345 31.7959C27.0345 31.7582 27.499 31.6959 28.0126 31.5631C29.4289 31.1977 30.6016 30.2377 31.2398 28.9213C31.5607 28.2595 31.7234 27.6159 31.7971 26.6819C31.8131 26.4782 31.8198 23.2315 31.8198 19.9891C31.8198 16.7462 31.8125 13.5055 31.7965 13.3019C31.722 12.3528 31.5592 11.7146 31.228 11.0401C30.9562 10.4879 30.6544 10.0755 30.2162 9.65387C29.4342 8.90696 28.4779 8.45241 27.3383 8.28805C26.7861 8.20823 26.6761 8.1846 23.8507 8.17969H20.0036Z" fill="url(#paint0_radial_379_1161)"/>
<path d="M20.0036 8.17969C15.0688 8.17969 13.6256 8.18478 13.3451 8.20805C12.3324 8.29223 11.7022 8.45169 11.0157 8.79351C10.4866 9.05623 10.0693 9.36078 9.65754 9.78769C8.90756 10.5662 8.45303 11.5241 8.28849 12.6626C8.20849 13.2153 8.18522 13.3281 8.1805 16.1513C8.17868 17.0924 8.1805 18.331 8.1805 19.9922C8.1805 24.9231 8.18595 26.365 8.20959 26.645C8.2914 27.6304 8.44594 28.2504 8.7732 28.9286C9.39864 30.2268 10.5931 31.2013 12.0004 31.565C12.4876 31.6904 13.0258 31.7595 13.7167 31.7922C14.0094 31.805 16.993 31.8141 19.9783 31.8141C22.9637 31.8141 25.949 31.8104 26.2345 31.7959C27.0345 31.7582 27.499 31.6959 28.0126 31.5631C29.4289 31.1977 30.6016 30.2377 31.2398 28.9213C31.5607 28.2595 31.7234 27.6159 31.7971 26.6819C31.8131 26.4782 31.8198 23.2315 31.8198 19.9891C31.8198 16.7462 31.8125 13.5055 31.7965 13.3019C31.722 12.3528 31.5592 11.7146 31.228 11.0401C30.9562 10.4879 30.6544 10.0755 30.2162 9.65387C29.4342 8.90696 28.4779 8.45241 27.3383 8.28805C26.7861 8.20823 26.6761 8.1846 23.8507 8.17969H20.0036Z" fill="url(#paint1_radial_379_1161)"/>
<path d="M20.0012 11.2734C17.6311 11.2734 17.3336 11.2838 16.4027 11.3262C15.4737 11.3687 14.8395 11.5158 14.2846 11.7316C13.7106 11.9545 13.2237 12.2527 12.7387 12.738C12.2532 13.2231 11.9551 13.71 11.7314 14.2838C11.5151 14.8389 11.3678 15.4733 11.326 16.402C11.2843 17.3329 11.2734 17.6305 11.2734 20.0007C11.2734 22.3709 11.284 22.6674 11.3262 23.5983C11.3689 24.5274 11.516 25.1616 11.7316 25.7165C11.9547 26.2905 12.2529 26.7774 12.7381 27.2625C13.223 27.748 13.7099 28.0469 14.2835 28.2698C14.8388 28.4856 15.4731 28.6327 16.402 28.6753C17.3329 28.7176 17.6302 28.728 20.0001 28.728C22.3704 28.728 22.6669 28.7176 23.5978 28.6753C24.5269 28.6327 25.1617 28.4856 25.717 28.2698C26.2908 28.0469 26.777 27.748 27.2619 27.2625C27.7473 26.7774 28.0455 26.2905 28.2691 25.7167C28.4836 25.1616 28.6309 24.5273 28.6745 23.5985C28.7164 22.6676 28.7273 22.3709 28.7273 20.0007C28.7273 17.6305 28.7164 17.3331 28.6745 16.4022C28.6309 15.4731 28.4836 14.8389 28.2691 14.284C28.0455 13.71 27.7473 13.2231 27.2619 12.738C26.7764 12.2525 26.291 11.9543 25.7165 11.7316C25.1601 11.5158 24.5256 11.3687 23.5965 11.3262C22.6656 11.2838 22.3693 11.2734 19.9984 11.2734H20.0012ZM19.2183 12.8462C19.4506 12.8458 19.7099 12.8462 20.0012 12.8462C22.3313 12.8462 22.6075 12.8545 23.5276 12.8963C24.3785 12.9353 24.8403 13.0774 25.1479 13.1969C25.5552 13.3551 25.8455 13.5442 26.1508 13.8496C26.4563 14.1551 26.6453 14.446 26.8039 14.8533C26.9233 15.1605 27.0657 15.6223 27.1044 16.4733C27.1462 17.3933 27.1553 17.6696 27.1553 19.9987C27.1553 22.3278 27.1462 22.6042 27.1044 23.5242C27.0655 24.3751 26.9233 24.8369 26.8039 25.1442C26.6457 25.5514 26.4563 25.8414 26.1508 26.1467C25.8454 26.4522 25.5554 26.6413 25.1479 26.7994C24.8407 26.9194 24.3785 27.0613 23.5276 27.1002C22.6076 27.142 22.3313 27.1511 20.0012 27.1511C17.6709 27.1511 17.3947 27.142 16.4747 27.1002C15.6239 27.0609 15.162 26.9187 14.8542 26.7993C14.447 26.6411 14.1561 26.452 13.8506 26.1465C13.5452 25.8411 13.3561 25.5509 13.1976 25.1434C13.0781 24.8362 12.9358 24.3743 12.897 23.5234C12.8552 22.6034 12.8468 22.3271 12.8468 19.9965C12.8468 17.666 12.8552 17.3911 12.897 16.4711C12.9359 15.6202 13.0781 15.1583 13.1976 14.8507C13.3557 14.4434 13.5452 14.1525 13.8506 13.8471C14.1561 13.5416 14.447 13.3525 14.8542 13.194C15.1619 13.074 15.6239 12.9322 16.4747 12.8931C17.2798 12.8567 17.5918 12.8458 19.2183 12.844V12.8462ZM24.6596 14.2953C24.0814 14.2953 23.6123 14.7638 23.6123 15.3422C23.6123 15.9203 24.0814 16.3894 24.6596 16.3894C25.2377 16.3894 25.7068 15.9203 25.7068 15.3422C25.7068 14.764 25.2377 14.2949 24.6596 14.2949V14.2953ZM20.0012 15.5189C17.5262 15.5189 15.5195 17.5256 15.5195 20.0007C15.5195 22.4758 17.5262 24.4816 20.0012 24.4816C22.4762 24.4816 24.4821 22.4758 24.4821 20.0007C24.4821 17.5256 22.4762 15.5189 20.0012 15.5189ZM20.0012 17.0916C21.6077 17.0916 22.9102 18.394 22.9102 20.0007C22.9102 21.6073 21.6077 22.9098 20.0012 22.9098C18.3945 22.9098 17.0922 21.6073 17.0922 20.0007C17.0922 18.394 18.3945 17.0916 20.0012 17.0916Z" fill="white"/>
</g>
<defs>
<radialGradient id="paint0_radial_379_1161" cx="0" cy="0" r="1" gradientUnits="userSpaceOnUse" gradientTransform="translate(14.4591 33.6344) rotate(-90) scale(23.4234 21.7909)">
<stop stop-color="#FFDD55"/>
<stop offset="0.1" stop-color="#FFDD55"/>
<stop offset="0.5" stop-color="#FF543E"/>
<stop offset="1" stop-color="#C837AB"/>
</radialGradient>
<radialGradient id="paint1_radial_379_1161" cx="0" cy="0" r="1" gradientUnits="userSpaceOnUse" gradientTransform="translate(4.21985 9.88227) rotate(78.678) scale(10.4705 43.1693)">
<stop stop-color="#3771C8"/>
<stop offset="0.128" stop-color="#3771C8"/>
<stop offset="1" stop-color="#6600FF" stop-opacity="0"/>
</radialGradient>
<clipPath id="clip0_379_1161">
<rect width="24" height="24" fill="white" transform="translate(8 8)"/>
</clipPath>
</defs>
</svg>
