<svg width="40" height="40" viewBox="0 0 40 40" fill="none" xmlns="http://www.w3.org/2000/svg">
<rect x="0.5" y="0.5" width="39" height="39" rx="11.5" fill="white"/>
<rect x="0.5" y="0.5" width="39" height="39" rx="11.5" stroke="#929292"/>
<rect width="26" height="26" transform="translate(7 7)" fill="white"/>
<g clip-path="url(#clip0_379_1296)">
<path d="M28.4 8H11.6C9.61177 8 8 9.61177 8 11.6V28.4C8 30.3882 9.61177 32 11.6 32H28.4C30.3882 32 32 30.3882 32 28.4V11.6C32 9.61177 30.3882 8 28.4 8Z" fill="#0077B5"/>
<path d="M14.6562 16.2031C15.6141 16.2031 16.3906 15.4266 16.3906 14.4688C16.3906 13.5109 15.6141 12.7344 14.6562 12.7344C13.6984 12.7344 12.9219 13.5109 12.9219 14.4688C12.9219 15.4266 13.6984 16.2031 14.6562 16.2031Z" fill="white"/>
<path d="M19.4375 17.0938V26.375V17.0938ZM14.6562 17.0938V26.375V17.0938Z" fill="white"/>
<path d="M19.4375 17.0938V26.375M14.6562 17.0938V26.375" stroke="white" stroke-width="3.09375"/>
<path d="M20.9375 21.2188C20.9375 20.2812 21.5469 19.3438 22.625 19.3438C23.75 19.3438 24.1719 20.1875 24.1719 21.4531V26.375H27.2656V21.0781C27.2656 18.2188 25.7656 16.9062 23.7031 16.9062C22.1094 16.9062 21.3125 17.7969 20.9375 18.4062" fill="white"/>
</g>
<defs>
<clipPath id="clip0_379_1296">
<rect width="24" height="24" fill="white" transform="translate(8 8)"/>
</clipPath>
</defs>
</svg>
