<svg width="40" height="40" viewBox="0 0 40 40" fill="none" xmlns="http://www.w3.org/2000/svg">
<rect x="0.5" y="0.5" width="39" height="39" rx="11.5" fill="white"/>
<rect x="0.5" y="0.5" width="39" height="39" rx="11.5" stroke="#929292"/>
<rect width="26" height="26" transform="translate(7 7)" fill="white"/>
<g clip-path="url(#clip0_379_1218)">
<path d="M31.5 19.9891C31.5063 26.3399 26.3618 31.4937 20.0109 31.5C13.6601 31.5063 8.50633 26.3618 8.50001 20.0109C8.49368 13.6601 13.6382 8.50633 19.9891 8.50001C26.3399 8.49368 31.4937 13.6382 31.5 19.9891Z" fill="url(#paint0_linear_379_1218)"/>
<path opacity="0.05" d="M27.9195 19.4066C27.9195 15.2919 24.6247 12.1892 20.2547 12.1892C14.6387 12.1892 12.0811 16.0946 12.0811 19.724C12.0811 21.5341 13.0155 23.8939 14.7474 24.7006C15.0268 24.8312 15.2821 24.8409 15.507 24.7323C15.657 24.6598 15.8537 24.5005 15.9336 24.1601L16.2533 22.8555C16.3258 22.5513 16.2608 22.2724 16.0584 22.0263C15.6984 21.5893 15.3333 20.6728 15.3333 19.7666C15.3333 17.6258 16.9514 15.3506 19.9506 15.3506C22.4403 15.3506 24.1791 17.0382 24.1791 19.4543C24.1791 22.1724 22.9003 24.1452 21.1391 24.1452C20.7469 24.1452 20.3973 23.9876 20.18 23.7128C19.9782 23.4575 19.9132 23.1246 19.9954 22.775C20.1081 22.3 20.2628 21.8009 20.4117 21.3179C20.6958 20.3991 20.9637 19.5314 20.9637 18.8138C20.9637 17.5011 20.1478 16.6196 18.934 16.6196C17.4447 16.6196 16.2786 18.0985 16.2786 19.9868C16.2786 20.7993 16.4758 21.4341 16.5949 21.744C16.385 22.6318 15.4742 26.4872 15.2896 27.2795C15.0688 28.2225 15.1131 29.4668 15.2045 30.4426C15.8336 30.7318 16.4925 30.9635 17.1768 31.1366C17.6207 30.4012 18.3101 29.1592 18.5809 28.1184C18.6568 27.8263 18.8615 27.0455 19.0329 26.3928C19.6642 26.8494 20.5192 27.1352 21.3766 27.1352C25.1072 27.1346 27.9195 23.8123 27.9195 19.4066Z" fill="black"/>
<path opacity="0.07" d="M27.632 19.4067C27.632 15.4559 24.4603 12.4768 20.2547 12.4768C14.8365 12.4768 12.3686 16.2333 12.3686 19.7241C12.3686 21.4698 13.3035 23.7112 14.8693 24.4403C14.9423 24.4748 15.166 24.5788 15.3822 24.4742C15.519 24.4075 15.611 24.2793 15.6547 24.0935L15.9738 22.7894C16.025 22.5744 15.9807 22.3846 15.8364 22.2098C15.3712 21.6452 15.0458 20.6407 15.0458 19.7672C15.0458 17.4874 16.765 15.0637 19.9505 15.0637C22.6093 15.0637 24.4666 16.8692 24.4666 19.455C24.4666 22.3398 23.067 24.4334 21.1391 24.4334C20.6589 24.4334 20.2271 24.2361 19.9546 23.8917C19.697 23.5663 19.6124 23.1459 19.7159 22.7089C19.8309 22.2248 19.9868 21.7211 20.1374 21.2335C20.4146 20.3359 20.6768 19.4884 20.6768 18.8139C20.6768 17.6731 19.9764 16.9072 18.9345 16.9072C17.6068 16.9072 16.5667 18.2602 16.5667 19.9869C16.5667 20.8454 16.7961 21.4848 16.8961 21.7222C16.7357 22.4007 15.7617 26.5223 15.5702 27.3452C15.3454 28.3083 15.408 29.613 15.5087 30.5887C15.9531 30.7773 16.4154 30.9303 16.8864 31.0625C17.3188 30.3536 18.0323 29.0874 18.3032 28.0467C18.3975 27.6844 18.689 26.5729 18.8701 25.8835C19.4532 26.4637 20.4117 26.8484 21.3771 26.8484C24.9433 26.8472 27.632 23.6485 27.632 19.4067Z" fill="black"/>
<path d="M20.2547 12.7646C15.2914 12.7646 12.6561 16.0968 12.6561 19.7239C12.6561 21.4103 13.5543 23.5102 14.9906 24.179C15.208 24.2807 15.3253 24.2365 15.3747 24.0254C15.4133 23.8656 15.6065 23.0842 15.6939 22.7213C15.7215 22.6052 15.7082 22.5057 15.6145 22.3919C15.139 21.8151 14.7589 20.7548 14.7589 19.767C14.7589 17.2301 16.6794 14.776 19.9511 14.776C22.7761 14.776 24.7541 16.7011 24.7541 19.4548C24.7541 22.5655 23.1832 24.7206 21.1391 24.7206C20.0104 24.7206 19.1651 23.7874 19.4359 22.642C19.7608 21.2752 20.3887 19.8003 20.3887 18.8136C20.3887 17.931 19.9155 17.1939 18.934 17.1939C17.7799 17.1939 16.8536 18.387 16.8536 19.9866C16.8536 21.0044 17.1975 21.6932 17.1975 21.6932C17.1975 21.6932 16.0578 26.5129 15.8491 27.4099C15.6179 28.4 15.7076 29.791 15.8083 30.7006C16.0676 30.8024 16.3269 30.9042 16.5954 30.9875C17.0652 30.2239 17.765 28.9716 18.0249 27.9734C18.1646 27.4346 18.7419 25.2393 18.7419 25.2393C19.1168 25.954 20.2122 26.56 21.3771 26.56C24.8455 26.56 27.3445 23.3705 27.3445 19.407C27.3445 15.6069 24.2447 12.7646 20.2547 12.7646Z" fill="white"/>
</g>
<defs>
<linearGradient id="paint0_linear_379_1218" x1="14.829" y1="9.93865" x2="25.5137" y2="30.7272" gradientUnits="userSpaceOnUse">
<stop stop-color="#F22543"/>
<stop offset="0.422" stop-color="#EB2239"/>
<stop offset="1" stop-color="#E52030"/>
</linearGradient>
<clipPath id="clip0_379_1218">
<rect width="24" height="24" fill="white" transform="translate(8 8)"/>
</clipPath>
</defs>
</svg>
