<svg width="40" height="40" viewBox="0 0 40 40" fill="none" xmlns="http://www.w3.org/2000/svg">
<rect x="0.5" y="0.5" width="39" height="39" rx="11.5" fill="white"/>
<rect x="0.5" y="0.5" width="39" height="39" rx="11.5" stroke="#929292"/>
<rect width="26" height="26" transform="translate(7 7)" fill="white"/>
<path d="M18.5475 19.2898L9.83667 29.3447C10.1535 30.4078 11.1602 31.1538 12.2854 31.1538C12.7751 31.1538 13.2039 31.0331 13.5712 30.7916L24.2857 24.7571L18.5475 19.2898Z" fill="#EA4335"/>
<path d="M28.8167 17.8751L24.2243 15.2788L19.3264 20.0481L24.2857 24.7573L28.8777 22.2216C29.6737 21.7989 30.2249 20.9538 30.2249 20.0481C30.1634 19.1425 29.6127 18.2974 28.8167 17.8751Z" fill="#FBBC04"/>
<path d="M18.5265 20.8324L24.2247 15.2786L13.6326 9.36218C13.2653 9.12073 12.7751 9 12.2854 9C11.1225 9 10.0815 9.78493 9.83667 10.8113L18.5265 20.8324Z" fill="#34A853"/>
<path d="M9.83614 10.8113C9.77515 10.9922 9.77515 11.234 9.77515 11.4751V28.6813C9.77515 28.9223 9.77515 29.1036 9.83658 29.3451L19.3273 20.0479L9.83614 10.8113Z" fill="#4285F4"/>
</svg>
