<svg width="40" height="40" viewBox="0 0 40 40" fill="none" xmlns="http://www.w3.org/2000/svg">
<rect x="0.5" y="0.5" width="39" height="39" rx="11.5" fill="white"/>
<rect x="0.5" y="0.5" width="39" height="39" rx="11.5" stroke="#929292"/>
<rect width="26" height="26" transform="translate(7 7)" fill="white"/>
<g clip-path="url(#clip0_379_1226)">
<path d="M27.0781 8H12.9219C10.2036 8 8 10.2036 8 12.9219V27.0781C8 29.7964 10.2036 32 12.9219 32H27.0781C29.7964 32 32 29.7964 32 27.0781V12.9219C32 10.2036 29.7964 8 27.0781 8Z" fill="#FFFC00"/>
<path d="M27.8824 24.0075C27.8134 23.7792 27.4834 23.6184 27.4834 23.6184V23.6189C27.453 23.6016 27.4249 23.5875 27.4009 23.5758C26.8516 23.31 26.365 22.9913 25.9544 22.628C25.6249 22.3364 25.3427 22.0153 25.1158 21.6731C24.8392 21.2564 24.7094 20.9081 24.6531 20.7197C24.6222 20.5969 24.6274 20.5481 24.6531 20.4839C24.6752 20.4305 24.738 20.3784 24.7689 20.355C24.9545 20.2237 25.2531 20.0302 25.4364 19.9116C25.5953 19.8089 25.7322 19.7198 25.8119 19.6645C26.0702 19.4841 26.2464 19.3003 26.3505 19.1025C26.4855 18.8461 26.5014 18.5644 26.3964 18.2864C26.2549 17.9123 25.9056 17.6888 25.4617 17.6888C25.3628 17.6888 25.2616 17.7 25.1608 17.722C24.9067 17.7769 24.6653 17.8673 24.4633 17.9461C24.4599 17.9474 24.4562 17.9478 24.4525 17.9474C24.4489 17.9469 24.4455 17.9455 24.4425 17.9434C24.4395 17.9413 24.4371 17.9384 24.4355 17.9351C24.4339 17.9318 24.4331 17.9282 24.4333 17.9245C24.4549 17.4244 24.4788 16.7527 24.4234 16.1133C24.3733 15.5353 24.2547 15.0483 24.0602 14.6241C23.8647 14.198 23.6111 13.8825 23.4124 13.6552C23.2225 13.4377 22.8906 13.1184 22.3891 12.8316C21.6827 12.4275 20.8788 12.2227 19.9999 12.2227C19.1228 12.2227 18.3199 12.4275 17.613 12.8311C17.0819 13.1344 16.7425 13.4775 16.5874 13.6552C16.3886 13.8825 16.1355 14.198 15.94 14.6241C15.7455 15.0483 15.6264 15.5353 15.5767 16.1133C15.5209 16.7536 15.5434 17.3728 15.5664 17.9241C15.5674 17.9405 15.5509 17.9517 15.5359 17.9461C15.3344 17.8673 15.0925 17.7769 14.8389 17.722C14.7381 17.7 14.6369 17.6888 14.538 17.6888C14.0941 17.6888 13.7449 17.9123 13.6033 18.2864C13.4983 18.5644 13.5142 18.8461 13.6492 19.1025C13.7538 19.3003 13.93 19.4841 14.1878 19.6645C14.2675 19.7198 14.4044 19.8089 14.5633 19.9116C14.7428 20.0278 15.033 20.2158 15.2195 20.3466C15.2425 20.3634 15.3213 20.4225 15.3461 20.4839C15.3728 20.5495 15.3775 20.5992 15.3438 20.7295C15.2856 20.9198 15.1558 21.2634 14.8844 21.6731C14.657 22.0153 14.3749 22.3364 14.0453 22.628C13.6347 22.9913 13.1481 23.31 12.5988 23.5758C12.573 23.5884 12.542 23.6044 12.5083 23.6236V23.6231C12.5083 23.6231 12.1802 23.7909 12.1183 24.0075C12.0269 24.3277 12.2702 24.6272 12.5195 24.788C12.9264 25.05 13.4219 25.1911 13.7092 25.268C13.7889 25.2891 13.8616 25.3088 13.9277 25.3294C13.9689 25.343 14.0725 25.3819 14.1166 25.4386C14.1724 25.5103 14.1789 25.5994 14.1991 25.6992C14.2309 25.8675 14.3008 26.077 14.5094 26.2205C14.7381 26.3789 15.0292 26.3902 15.3977 26.4042C15.783 26.4192 16.263 26.4375 16.8114 26.6184C17.0659 26.7028 17.2966 26.8444 17.5633 27.008C18.1206 27.3506 18.8144 27.7767 19.9999 27.7767C21.1858 27.7767 21.8842 27.3483 22.4453 27.0038C22.7106 26.8411 22.9399 26.7005 23.1883 26.6184C23.7372 26.437 24.2167 26.4188 24.602 26.4042C24.9705 26.3902 25.2616 26.3789 25.4908 26.2205C25.7134 26.0667 25.7781 25.8375 25.8072 25.6641C25.8227 25.5783 25.8334 25.5019 25.8827 25.4386C25.9244 25.3847 26.02 25.3472 26.065 25.3312C26.133 25.3102 26.208 25.29 26.2909 25.268C26.5783 25.1911 26.9383 25.1002 27.3766 24.8527C27.9011 24.5564 27.9367 24.1884 27.8824 24.0075Z" fill="white"/>
<path d="M27.1612 24.4609C26.4431 24.8575 25.9659 24.8153 25.5947 25.0539C25.2792 25.2569 25.4658 25.6947 25.2365 25.8526C24.9553 26.0472 24.1228 25.839 23.0484 26.1939C22.162 26.4869 21.5962 27.3297 20.0001 27.3297C18.4008 27.3297 17.8519 26.4911 16.9523 26.1939C15.8775 25.839 15.0454 26.0472 14.7637 25.8526C14.535 25.6947 14.7211 25.2569 14.4061 25.0539C14.0348 24.8153 13.5572 24.8575 12.8395 24.4609C12.3825 24.2087 12.6417 24.0522 12.794 23.9786C15.3951 22.7195 15.8095 20.7751 15.8283 20.6289C15.8508 20.4545 15.8756 20.3172 15.6829 20.139C15.4973 19.9675 14.6728 19.4575 14.4445 19.2976C14.0658 19.0337 13.8994 18.7694 14.0222 18.445C14.1065 18.2209 14.317 18.1361 14.5383 18.1361C14.6072 18.1361 14.677 18.1445 14.7445 18.159C15.1598 18.2495 15.5634 18.4572 15.7969 18.5139C15.8287 18.5214 15.8573 18.5251 15.8826 18.5251C16.0064 18.5251 16.0504 18.4623 16.042 18.3203C16.0153 17.8656 15.9511 16.9797 16.0223 16.1519C16.1208 15.0133 16.4883 14.4489 16.9247 13.9497C17.1342 13.7097 18.1181 12.67 20.0001 12.67C21.8873 12.67 22.8665 13.7097 23.0761 13.9497C23.5125 14.4489 23.88 15.0133 23.9779 16.1519C24.0497 16.9797 23.9878 17.8661 23.9587 18.3203C23.9489 18.4698 23.9939 18.5251 24.1181 18.5251C24.1434 18.5251 24.172 18.5214 24.2039 18.5139C24.4373 18.4572 24.8404 18.2495 25.2562 18.159C25.3237 18.1445 25.3936 18.1361 25.4625 18.1361C25.6837 18.1361 25.8937 18.2209 25.9786 18.445C26.1014 18.7694 25.935 19.0337 25.5562 19.2976C25.3275 19.4575 24.5034 19.9675 24.3173 20.139C24.1251 20.3172 24.15 20.4545 24.172 20.6289C24.1908 20.7751 24.6056 22.7195 27.2067 23.9786C27.359 24.0522 27.6183 24.2087 27.1612 24.4609ZM20.4244 11.7456H19.5769C18.7762 11.8028 18.0356 12.0236 17.3695 12.4042C16.8056 12.7262 16.432 13.0862 16.2173 13.3314C15.7022 13.9206 15.2086 14.6603 15.0867 16.0712C15.052 16.472 15.0436 16.8822 15.0497 17.2661C15.0145 17.2572 14.9794 17.2492 14.9437 17.2412C14.8087 17.2117 14.6723 17.1972 14.5383 17.1972C13.8919 17.1972 13.357 17.5478 13.1437 18.1126C12.9895 18.52 13.0148 18.9531 13.2145 19.3319C13.3561 19.6009 13.5825 19.8419 13.9069 20.0678C13.9931 20.1283 14.1267 20.215 14.2959 20.3247C14.3873 20.3837 14.5209 20.4705 14.6522 20.5567C14.6719 20.5708 14.7426 20.6223 14.7661 20.6715C14.7933 20.7278 14.7942 20.7883 14.7539 20.8998C14.6845 21.0531 14.5851 21.2401 14.4445 21.4464C14.0259 22.0581 13.4278 22.5761 12.6642 22.99C12.2592 23.2056 11.8387 23.3476 11.6611 23.8305C11.6212 23.9387 11.6011 24.0512 11.6011 24.1651C11.6015 24.4356 11.7159 24.7131 11.955 24.9587L11.9554 24.9583C12.0675 25.0787 12.2081 25.1856 12.3858 25.2831C12.8025 25.5133 13.1569 25.6262 13.4358 25.7036C13.4845 25.7181 13.5979 25.7551 13.6476 25.7983C13.7719 25.907 13.754 26.0706 13.9195 26.3097C14.0194 26.4587 14.1351 26.56 14.2298 26.6256C14.5767 26.8651 14.9667 26.8801 15.3792 26.8961C15.7523 26.9101 16.1747 26.9265 16.6579 27.0859C16.8576 27.152 17.0653 27.2795 17.3062 27.4276C17.8242 27.7459 18.5142 28.1697 19.6059 28.254H20.3939C21.487 28.1692 22.1817 27.7436 22.7029 27.4234C22.942 27.2767 23.1487 27.1501 23.3433 27.0859C23.8256 26.9261 24.2484 26.9101 24.6215 26.8961C25.034 26.8801 25.4236 26.8651 25.7704 26.6256C25.8797 26.5501 26.0161 26.4278 26.1244 26.2403C26.2429 26.0383 26.2401 25.8958 26.3517 25.7983C26.3972 25.7584 26.4975 25.7242 26.5509 25.7073C26.8322 25.63 27.1912 25.5175 27.615 25.2831C27.8029 25.1795 27.9501 25.0661 28.0654 24.9367C28.0669 24.9353 28.0683 24.9334 28.0697 24.932C28.3889 24.5884 28.469 24.1858 28.3383 23.8305C28.2215 23.5131 27.9994 23.3429 27.7462 23.2023C27.7046 23.1782 27.6621 23.1557 27.6187 23.1348C27.5433 23.0959 27.4664 23.058 27.389 23.0181C26.6001 22.6 25.9842 22.0722 25.5562 21.4464C25.4119 21.235 25.3115 21.0442 25.2422 20.889C25.2056 20.7845 25.207 20.7259 25.2333 20.6715C25.2529 20.6303 25.3059 20.5872 25.334 20.5665C25.4695 20.477 25.6101 20.3856 25.7048 20.3247C25.8736 20.215 26.0072 20.1283 26.0939 20.0678C26.4178 19.8419 26.6442 19.6009 26.7862 19.3319C26.9859 18.9531 27.0112 18.52 26.857 18.1126C26.6433 17.5478 26.1089 17.1972 25.4625 17.1972C25.3284 17.1972 25.192 17.2117 25.0565 17.2412C25.0209 17.2492 24.9858 17.2572 24.9511 17.2661C24.9567 16.8822 24.9487 16.472 24.914 16.0712C24.7922 14.6603 24.2986 13.9206 23.7829 13.3314C23.5683 13.0858 23.1947 12.7253 22.6336 12.4047C21.9679 12.0236 21.2264 11.8028 20.4244 11.7456Z" fill="black"/>
</g>
<defs>
<clipPath id="clip0_379_1226">
<rect width="24" height="24" fill="white" transform="translate(8 8)"/>
</clipPath>
</defs>
</svg>
