<svg width="40" height="40" viewBox="0 0 40 40" fill="none" xmlns="http://www.w3.org/2000/svg">
<rect x="0.5" y="0.5" width="39" height="39" rx="11.5" fill="white"/>
<rect x="0.5" y="0.5" width="39" height="39" rx="11.5" stroke="#929292"/>
<rect width="26" height="26" transform="translate(7 7)" fill="white"/>
<g clip-path="url(#clip0_379_1167)">
<path fill-rule="evenodd" clip-rule="evenodd" d="M12.9219 8H27.0781C29.7935 8.00727 31.9927 10.2065 32 12.9217V27.0781C31.9927 29.7934 29.7935 31.9927 27.0783 31.9999L12.9219 32C10.2066 31.9927 8.00731 29.7934 8.00009 27.0783L8 12.9219C8.00731 10.2065 10.2066 8.00727 12.9217 8H12.9219Z" fill="#1ED760"/>
<path d="M19.9998 11.3515C15.2233 11.3515 11.3511 15.2236 11.3511 20C11.3511 24.7766 15.2233 28.6486 19.9998 28.6486C24.7768 28.6486 28.6487 24.7767 28.6487 20C28.6487 15.2238 24.7768 11.3518 19.9997 11.3518L19.9998 11.3513V11.3515ZM23.9661 23.8253C23.8112 24.0793 23.4787 24.16 23.2246 24.004C21.194 22.7636 18.6376 22.4827 15.6271 23.1705C15.3369 23.2366 15.0478 23.0548 14.9816 22.7646C14.9152 22.4744 15.0963 22.1853 15.3872 22.1192C18.6817 21.3665 21.5077 21.6906 23.7874 23.0838C24.0416 23.2397 24.1222 23.5712 23.9661 23.8253ZM25.0247 21.4704C24.8294 21.7876 24.4143 21.8877 24.0972 21.6926C21.7724 20.2637 18.2288 19.8498 15.479 20.6846C15.1224 20.7923 14.7458 20.5914 14.6376 20.2353C14.5301 19.8787 14.7312 19.5029 15.0872 19.3945C18.2282 18.4414 22.133 18.903 24.8027 20.5436C25.1198 20.7389 25.2199 21.154 25.0248 21.4707V21.4706L25.0247 21.4704ZM25.1156 19.0182C22.3281 17.3626 17.7292 17.2104 15.0679 18.0181C14.6405 18.1477 14.1886 17.9066 14.0591 17.4791C13.9296 17.0515 14.1707 16.5999 14.5982 16.47C17.6533 15.5426 22.732 15.7217 25.9412 17.627C26.3264 17.8552 26.4525 18.3515 26.2242 18.7354C25.9969 19.1198 25.4991 19.2465 25.1161 19.0182H25.1156Z" fill="white"/>
</g>
<defs>
<clipPath id="clip0_379_1167">
<rect width="24" height="24" fill="white" transform="translate(8 8)"/>
</clipPath>
</defs>
</svg>
