<svg width="40" height="40" viewBox="0 0 40 40" fill="none" xmlns="http://www.w3.org/2000/svg">
<rect x="0.5" y="0.5" width="39" height="39" rx="11.5" fill="white"/>
<rect x="0.5" y="0.5" width="39" height="39" rx="11.5" stroke="#929292"/>
<rect width="26" height="26" transform="translate(7 7)" fill="white"/>
<g clip-path="url(#clip0_379_1155)">
<path fill-rule="evenodd" clip-rule="evenodd" d="M12.9219 8H27.0781C29.7852 8 32 10.2148 32 12.9219V27.0781C32 29.7852 29.7852 32 27.0781 32H12.9219C10.2148 32 8 29.7852 8 27.0781V12.9219C8 10.2148 10.2148 8 12.9219 8Z" fill="black"/>
<path d="M23.8137 19.4178C23.7453 19.385 23.6754 19.3531 23.6047 19.3231C23.4819 17.0562 22.2434 15.7583 20.1636 15.7451C18.9636 15.7372 17.8892 16.2265 17.2198 17.2423L18.3636 18.027C18.8394 17.3051 19.5861 17.1514 20.1359 17.1514H20.1547C20.8395 17.1556 21.3565 17.3548 21.6908 17.7429C21.934 18.0261 22.0972 18.4165 22.1778 18.9097C21.5703 18.8065 20.914 18.7747 20.2119 18.815C18.2347 18.9289 16.9634 20.082 17.0487 21.6842C17.0919 22.4975 17.4969 23.1964 18.1887 23.6534C18.7737 24.0397 19.5275 24.2286 20.3103 24.1854C21.3448 24.1292 22.1558 23.7345 22.722 23.0131C23.1519 22.4651 23.4237 21.755 23.5437 20.8606C24.0364 21.1578 24.4015 21.5492 24.6036 22.0198C24.9462 22.8195 24.9664 24.1339 23.8939 25.2054C22.9545 26.1444 21.8248 26.5503 20.1181 26.563C18.2244 26.5489 16.7923 25.9414 15.8614 24.7578C14.9895 23.6497 14.539 22.0489 14.5222 20C14.539 17.9511 14.9895 16.3503 15.8614 15.2422C16.7923 14.0586 18.2244 13.4511 20.1181 13.437C22.025 13.4511 23.4819 14.0614 24.4489 15.2506C24.9228 15.8337 25.28 16.5673 25.5158 17.4223L26.8559 17.0647C26.5704 16.0123 26.1214 15.1053 25.5097 14.3529C24.2703 12.8281 22.4581 12.0472 20.1228 12.0308H20.1134C17.7828 12.0472 15.9903 12.8314 14.7865 14.3619C13.715 15.7236 13.1623 17.6187 13.144 19.9944V20.0056C13.1623 22.3812 13.715 24.2764 14.7865 25.6381C15.9903 27.1686 17.7828 27.9533 20.1134 27.9692H20.1228C22.1947 27.9547 23.6553 27.4123 24.8586 26.21C26.4326 24.6373 26.3853 22.6662 25.8664 21.4559C25.4942 20.5883 24.7845 19.8833 23.8137 19.4178ZM20.2362 22.7815C19.37 22.8303 18.4695 22.4412 18.425 21.6083C18.3922 20.9904 18.8647 20.3009 20.2897 20.2189C20.4528 20.2095 20.6131 20.2048 20.7701 20.2048C21.2876 20.2048 21.7719 20.255 22.212 20.3515C22.0479 22.4019 21.0851 22.7347 20.2362 22.7815Z" fill="white"/>
</g>
<defs>
<clipPath id="clip0_379_1155">
<rect width="24" height="24" fill="white" transform="translate(8 8)"/>
</clipPath>
</defs>
</svg>
