<svg width="40" height="40" viewBox="0 0 40 40" fill="none" xmlns="http://www.w3.org/2000/svg">
<rect x="0.5" y="0.5" width="39" height="39" rx="11.5" fill="white"/>
<rect x="0.5" y="0.5" width="39" height="39" rx="11.5" stroke="#929292"/>
<rect width="26" height="26" transform="translate(7 7)" fill="white"/>
<path d="M25.1205 16.663C26.7243 17.8098 28.6474 18.4248 30.619 18.4215V14.4785C30.231 14.4785 29.844 14.438 29.464 14.3575V17.4615C27.414 17.4615 25.516 16.81 23.966 15.703V23.7505C23.966 27.776 20.701 31.0395 16.6735 31.0395C15.2276 31.0419 13.8139 30.6126 12.6135 29.8065C13.2921 30.5017 14.1031 31.054 14.9986 31.4306C15.8941 31.8073 16.856 32.0007 17.8275 31.9995C21.8555 31.9995 25.1205 28.736 25.1205 24.7105V16.663ZM26.545 12.685C25.7303 11.7975 25.2297 10.6668 25.1205 9.46696V8.95996H24.0265C24.3015 10.53 25.2415 11.8715 26.545 12.685ZM15.16 26.7175C14.7308 26.1532 14.4925 25.4668 14.4799 24.7579C14.4672 24.049 14.6808 23.3546 15.0896 22.7753C15.4984 22.196 16.0812 21.7622 16.7533 21.5366C17.4255 21.311 18.152 21.3056 18.8275 21.521V17.4895C18.445 17.437 18.059 17.4148 17.673 17.423V20.561C17.3457 20.4571 17.0044 20.4043 16.661 20.4045C15.9107 20.4045 15.1823 20.6576 14.5936 21.1228C14.0049 21.5879 13.5903 22.2381 13.4167 22.968C13.2432 23.698 13.3208 24.4652 13.6372 25.1455C13.9535 25.8259 14.49 26.3797 15.16 26.7175Z" fill="#FF004F"/>
<path d="M23.966 15.703C25.5698 16.8496 27.4926 17.4646 29.464 17.4615V14.3575C28.3407 14.1173 27.3203 13.5326 26.545 12.685C25.8874 12.2755 25.3233 11.7322 24.8894 11.0905C24.4555 10.4487 24.1615 9.7228 24.0265 8.95996H21.152V24.71C21.1499 25.4074 20.9292 26.0866 20.521 26.6521C20.1128 27.2176 19.5375 27.6409 18.8762 27.8624C18.2149 28.084 17.5008 28.0927 16.8343 27.8873C16.1678 27.682 15.5824 27.2728 15.1605 26.7175C14.4899 26.3802 13.9528 25.8265 13.636 25.146C13.3192 24.4655 13.2414 23.698 13.415 22.9677C13.5886 22.2374 14.0036 21.5871 14.5928 21.122C15.182 20.6569 15.9109 20.4043 16.6615 20.405C17.0145 20.405 17.3545 20.46 17.674 20.561V17.423C13.717 17.505 10.535 20.736 10.535 24.71C10.535 26.694 11.3275 28.4925 12.6135 29.8065C13.8139 30.6125 15.2276 31.0419 16.6735 31.0395C20.701 31.0395 23.966 27.776 23.966 23.7505V15.703Z" fill="black"/>
<path d="M29.4645 14.3575V13.5185C28.4325 13.52 27.421 13.2312 26.5455 12.685C27.3205 13.5329 28.341 14.1176 29.4645 14.3575ZM24.0265 8.96C24.0005 8.81 23.98 8.659 23.9665 8.507V8H19.9975V23.7505C19.9943 24.633 19.6415 25.4783 19.0163 26.1011C18.3911 26.724 17.5445 27.0736 16.662 27.0735C16.1406 27.0742 15.6265 26.9522 15.161 26.7175C15.4721 27.1269 15.8737 27.4587 16.3343 27.687C16.795 27.9153 17.3023 28.0339 17.8165 28.0335C18.6991 28.0338 19.5458 27.6842 20.1711 27.0613C20.7964 26.4384 21.1493 25.5931 21.1525 24.7105V8.96H24.0265ZM17.675 17.423V16.5295C17.3434 16.4841 17.0091 16.4614 16.6745 16.4615C12.6465 16.4615 9.38147 19.725 9.38147 23.75C9.38147 26.274 10.6645 28.498 12.6145 29.8065C11.2796 28.4463 10.5329 26.6158 10.5355 24.71C10.5355 20.736 13.718 17.505 17.675 17.423Z" fill="#00F2EA"/>
</svg>
