<svg width="40" height="40" viewBox="0 0 40 40" fill="none" xmlns="http://www.w3.org/2000/svg">
<rect x="0.5" y="0.5" width="39" height="39" rx="11.5" fill="white"/>
<rect x="0.5" y="0.5" width="39" height="39" rx="11.5" stroke="#929292"/>
<rect width="26" height="26" transform="translate(7 7)" fill="white"/>
<g clip-path="url(#clip0_379_1240)">
<path fill-rule="evenodd" clip-rule="evenodd" d="M32 25.9095C32 26.0408 31.9958 26.3258 31.9878 26.5461C31.9686 27.0847 31.9259 27.7798 31.8612 28.0963C31.7749 28.5466 31.6288 28.9835 31.4267 29.3952C30.9823 30.2728 30.269 30.9854 29.3909 31.4291C28.9768 31.6317 28.5375 31.778 28.0845 31.8641C27.7709 31.9273 27.0809 31.9691 26.5461 31.9883C26.3253 31.9963 26.0403 32 25.9095 32H14.0923C13.9611 32 13.6761 31.9958 13.4558 31.9878C12.9172 31.9686 12.222 31.9259 11.9056 31.8617C11.4551 31.775 11.0182 31.6287 10.6062 31.4267C9.72791 30.9819 9.01477 30.2679 8.57094 29.3891C8.36829 28.975 8.22199 28.5356 8.13594 28.0827C8.07266 27.7691 8.03094 27.0781 8.01172 26.5442C8.00375 26.3239 8 26.0384 8 25.9062V14.0891C8 13.9578 8.00422 13.6728 8.01172 13.4525C8.03328 12.9153 8.07594 12.2188 8.14062 11.9037C8.22722 11.4533 8.37335 11.0163 8.57516 10.6044C9.02007 9.7272 9.73325 9.01485 10.6109 8.57094C11.025 8.36829 11.4644 8.22199 11.9173 8.13594C12.2309 8.07266 12.9219 8.03094 13.4558 8.01172C13.6761 8.00375 13.9616 8 14.0938 8H25.9109C26.0422 8 26.3272 8.00422 26.5475 8.01172C27.0847 8.03328 27.7812 8.07594 28.0963 8.14062C28.5467 8.22722 28.9837 8.37335 29.3956 8.57516C30.2728 9.02007 30.9852 9.73325 31.4291 10.6109C31.6317 11.025 31.778 11.4644 31.8641 11.9173C31.9273 12.2309 31.9691 12.9209 31.9883 13.4558C31.9963 13.6761 32 13.9616 32 14.0923V25.9095Z" fill="url(#paint0_linear_379_1240)"/>
<path fill-rule="evenodd" clip-rule="evenodd" d="M25.7921 14.172C25.0379 13.4123 24.1403 12.81 23.1514 12.4001C22.1625 11.9902 21.1021 11.7809 20.0316 11.7842C15.5471 11.7842 11.8932 15.4363 11.8932 19.9259C11.8919 21.3545 12.267 22.7581 12.9807 23.9956L11.8252 28.2144L16.1414 27.0814C17.335 27.7321 18.6727 28.0732 20.0321 28.0737H20.0354C24.5227 28.0737 28.1771 24.4217 28.1771 19.932C28.1795 18.8621 27.9699 17.8023 27.5603 16.8139C27.1506 15.8255 26.5492 14.928 25.7907 14.1734L25.7921 14.172ZM20.0339 26.7031C18.8213 26.7033 17.6309 26.3772 16.5877 25.7591L16.3397 25.6114L13.7785 26.2812L14.4624 23.7842L14.3021 23.5278C13.6221 22.4503 13.2626 21.2015 13.2657 19.9273C13.2657 16.1942 16.3018 13.1563 20.0377 13.1563C20.9267 13.1564 21.8069 13.3317 22.6281 13.6722C23.4493 14.0127 24.1954 14.5116 24.8237 15.1406C25.4519 15.7696 25.9501 16.5162 26.2896 17.3377C26.6292 18.1593 26.8036 19.0398 26.8027 19.9288C26.7994 23.6633 23.7638 26.7003 20.0335 26.7003L20.0339 26.7031ZM23.7441 21.6313C23.5416 21.5281 22.5404 21.0373 22.3543 20.9694C22.1682 20.9014 22.0332 20.8667 21.8949 21.0725C21.7566 21.2783 21.3689 21.7339 21.2499 21.8694C21.1308 22.0048 21.0127 22.0236 20.8107 21.9205C20.6086 21.8173 19.9505 21.6031 19.1738 20.9098C18.57 20.3708 18.1608 19.7033 18.0418 19.5036C17.9227 19.3039 18.0282 19.1891 18.1318 19.0897C18.2255 18.9992 18.3343 18.8525 18.4369 18.7334C18.5396 18.6144 18.5719 18.5309 18.6394 18.3931C18.7069 18.2553 18.6741 18.1391 18.623 18.0369C18.5719 17.9347 18.1636 16.933 17.9977 16.5252C17.8341 16.1263 17.6639 16.182 17.5388 16.175C17.4136 16.168 17.2847 16.1689 17.1502 16.1689C17.0472 16.1717 16.9459 16.1956 16.8526 16.2392C16.7593 16.2829 16.676 16.3453 16.6079 16.4225C16.4204 16.625 15.8954 17.1191 15.8954 18.1203C15.8954 19.1216 16.6238 20.0891 16.726 20.2255C16.8282 20.3619 18.1608 22.4173 20.2013 23.2977C20.686 23.5058 21.0647 23.6309 21.36 23.728C21.775 23.853 22.2133 23.8804 22.6407 23.8081C23.0321 23.7505 23.8444 23.3164 24.0146 22.8416C24.1847 22.3667 24.1847 21.9589 24.1341 21.875C24.0835 21.7911 23.9508 21.7344 23.7455 21.6303L23.7441 21.6313Z" fill="white"/>
</g>
<defs>
<linearGradient id="paint0_linear_379_1240" x1="19.9481" y1="8.01989" x2="19.9481" y2="31.9159" gradientUnits="userSpaceOnUse">
<stop stop-color="#61FD7D"/>
<stop offset="1" stop-color="#2BB826"/>
</linearGradient>
<clipPath id="clip0_379_1240">
<rect width="24" height="24" fill="white" transform="translate(8 8)"/>
</clipPath>
</defs>
</svg>
