<svg width="40" height="40" viewBox="0 0 40 40" fill="none" xmlns="http://www.w3.org/2000/svg">
<rect x="0.5" y="0.5" width="39" height="39" rx="11.5" fill="white"/>
<rect x="0.5" y="0.5" width="39" height="39" rx="11.5" stroke="#929292"/>
<rect width="26" height="26" transform="translate(7 7)" fill="white"/>
<g clip-path="url(#clip0_379_1182)">
<path d="M31.522 14.1854C31.3863 13.6748 31.1189 13.2088 30.7465 12.8341C30.3741 12.4593 29.9099 12.1889 29.4002 12.05C27.5238 11.5454 20.0238 11.5454 20.0238 11.5454C20.0238 11.5454 12.5238 11.5454 10.6474 12.05C10.1377 12.1889 9.67346 12.4593 9.30109 12.8341C8.92872 13.2088 8.66131 13.6748 8.52562 14.1854C8.0238 16.07 8.0238 20 8.0238 20C8.0238 20 8.0238 23.93 8.52562 25.8145C8.66131 26.3251 8.92872 26.7911 9.30109 27.1658C9.67346 27.5406 10.1377 27.811 10.6474 27.95C12.5238 28.4545 20.0238 28.4545 20.0238 28.4545C20.0238 28.4545 27.5238 28.4545 29.4002 27.95C29.9099 27.811 30.3741 27.5406 30.7465 27.1658C31.1189 26.7911 31.3863 26.3251 31.522 25.8145C32.0238 23.93 32.0238 20 32.0238 20C32.0238 20 32.0238 16.07 31.522 14.1854Z" fill="#FF0302"/>
<path d="M17.5693 23.5687V16.4314L23.8421 20L17.5693 23.5687Z" fill="#FEFEFE"/>
</g>
<defs>
<clipPath id="clip0_379_1182">
<rect width="24" height="24" fill="white" transform="translate(8 8)"/>
</clipPath>
</defs>
</svg>
