<svg width="24" height="24" viewBox="0 0 24 24" fill="none" xmlns="http://www.w3.org/2000/svg">
<g clipPath="url(#clip0_5100_9705)">
<path d="M12 24C18.6274 24 24 18.6274 24 12C24 5.3726 18.6274 0 12 0C5.3726 0 0 5.3726 0 12C0 18.6274 5.3726 24 12 24Z" fill="#2D8CFF"/>
<path fill-rule="evenodd" clip-rule="evenodd" d="M19.0454 7.96774L15.654 10.4421V13.5676L19.0454 16.0419C19.2853 16.2252 19.5671 16.2819 19.5671 15.7815V8.22819C19.5671 7.78199 19.341 7.72594 19.0454 7.96774ZM4.17578 13.8784V8.24374C4.17578 8.01324 4.36432 7.82619 4.5969 7.82619H12.8146C14.0941 7.82619 15.1323 8.85394 15.1323 10.1217V15.7564C15.1323 15.9869 14.9438 16.174 14.7112 16.174H6.49352C5.21397 16.174 4.17578 15.1462 4.17578 13.8784Z" fill="white"/>
</g>
<defs>
<clipPath id="clip0_5100_9705">
<rect width="24" height="24" fill="white"/>
</clipPath>
</defs>
</svg>
